<?xml version="1.0" encoding="utf-8"?>
<!-- Generator: Adobe Illustrator 24.1.1, SVG Export Plug-In . SVG Version: 6.00 Build 0)  -->
<svg version="1.1" id="Layer_1" xmlns="http://www.w3.org/2000/svg" xmlns:xlink="http://www.w3.org/1999/xlink" x="0px" y="0px"
	 viewBox="0 0 2666 498.6" style="enable-background:new 0 0 2666 498.6;" xml:space="preserve">
<style type="text/css">
	.st0{fill:#854DFF;}
	.st1{fill:#7A4AFF;}
	.st2{fill:#FFFFFF;}
</style>
<g>
	<g>
		<path id="path26_1_" class="st0" d="M392,434.8c0,10.1-8.2,18.3-18.3,18.3H47.1c-10.1,0-18.3-8.2-18.3-18.3V153.7H392V434.8z
			 M386.5,59.4h-46.9v18.8c0,18.3-14.9,33.1-33.1,33.1c-18.3,0-33.1-14.9-33.1-33.1V59.4h-123v18.8c0,19.1-16.3,34.5-35.7,33
			c-17.3-1.3-30.6-16-30.6-33.4V59.4H37.3C17.2,59.4,1,75.7,1,95.7v349.2c0,20,16.3,36.3,36.3,36.3h349.2c20,0,36.3-16.2,36.3-36.3
			V95.7c0-20-16.2-36.3-36.3-36.3"/>
		<path id="path28_1_" class="st0" d="M66.4,252.7h71.8c2.4,0,4.4-2,4.4-4.4v-48.3c0-2.4-2-4.4-4.4-4.4H66.4c-2.4,0-4.4,2-4.4,4.4
			v48.3C62.1,250.8,64,252.7,66.4,252.7"/>
		<path id="path30_1_" class="st0" d="M174.4,252.7h71.7c2.4,0,4.4-2,4.4-4.4v-48.3c0-2.4-2-4.4-4.4-4.4h-71.7c-2.4,0-4.4,2-4.4,4.4
			v48.3C170,250.8,172,252.7,174.4,252.7"/>
		<path id="path32_1_" class="st0" d="M282.6,253.4h71.7c2.4,0,4.4-2,4.4-4.4v-48.3c0-2.4-2-4.4-4.4-4.4h-71.7c-2.4,0-4.4,2-4.4,4.4
			V249C278.3,251.4,280.3,253.4,282.6,253.4"/>
		<path id="path34_1_" class="st0" d="M66.4,332h71.7c2.4,0,4.4-2,4.4-4.4v-48.3c0-2.4-2-4.4-4.4-4.4H66.4c-2.4,0-4.4,2-4.4,4.4
			v48.2C62.1,330.1,64,332,66.4,332"/>
		<path id="path36_1_" class="st0" d="M174.4,332.7h71.7c2.4,0,4.4-2,4.4-4.4v-48.3c0-2.4-2-4.4-4.4-4.4h-71.7c-2.4,0-4.4,2-4.4,4.4
			v48.2C170,330.8,172,332.7,174.4,332.7"/>
		<path class="st1" d="M354.4,274.7h-71.7c-2.4,0-4.4,2-4.4,4.4v48.2c0,2.4,1.9,4.4,4.3,4.4h71.7c2.4,0,4.4-2,4.4-4.4v-48.3
			C358.8,276.7,356.8,274.7,354.4,274.7z M348,292.8l-36.8,25.3c0,0,0,0,0,0l-6.9,4.7c-0.6,0.4-1.4,0.2-1.8-0.3l-4.7-6.8l-9.2-13.3
			c-0.3-0.5-0.2-1.1,0.3-1.5l7.1-4.9c0.5-0.3,1.1-0.2,1.5,0.3l8.5,12.3L342,284c0.6-0.4,1.4-0.3,1.8,0.3l4.6,6.7
			C348.8,291.6,348.6,292.4,348,292.8z"/>
		<path id="path40_1_" class="st0" d="M66.4,411.7h71.7c2.4,0,4.4-2,4.4-4.4v-48.3c0-2.4-2-4.4-4.4-4.4H66.4c-2.4,0-4.4,2-4.4,4.4
			v48.2C62.1,409.8,64,411.7,66.4,411.7"/>
		<path id="path42_1_" class="st0" d="M174.4,411.7h71.7c2.4,0,4.4-2,4.4-4.4v-48.3c0-2.4-2-4.4-4.4-4.4h-71.7c-2.4,0-4.4,2-4.4,4.4
			v48.2C170,409.8,172,411.7,174.4,411.7"/>
		<path id="path44_1_" class="st0" d="M282.6,411.7h71.7c2.4,0,4.4-2,4.4-4.4v-48.3c0-2.4-2-4.4-4.4-4.4h-71.7c-2.4,0-4.4,2-4.4,4.4
			v48.2C278.3,409.8,280.3,411.7,282.6,411.7"/>
		<path id="path46_1_" class="st1" d="M117.2,98.8c11.4,0,20.7-9.3,20.7-20.7V38.8c0-5.7-2.3-10.9-6.1-14.6
			c-3.7-3.7-8.9-6.1-14.6-6.1c-11.5,0-20.7,9.5-20.7,21v39C96.5,89.6,105.8,98.8,117.2,98.8"/>
		<path id="path48_1_" class="st1" d="M306.5,98.8c11.4,0,20.7-9.3,20.7-20.7V38.8c0-5.7-2.3-10.9-6.1-14.6
			c-3.8-3.7-8.9-6.1-14.6-6.1c-11.4,0-20.7,9.3-20.7,20.7v39.3C285.8,89.6,295.1,98.8,306.5,98.8"/>
		<path class="st2" d="M304.4,322.8l-0.2,0.1c-0.5,0.3-1.1,0.2-1.5-0.3l-0.1-0.2C303,323.1,303.8,323.2,304.4,322.8z"/>
	</g>
	<g>
		<path d="M661.9,362.3v50.3H492.8V128.8h169.2v50.3H545.3v76.4h97.4v47.8h-97.4v59H661.9z"/>
		<path d="M811.7,416.4h-3.4L673.5,131.9l2.1-3h56.5l79.2,181.9l77.9-181.9h55.4l1.5,2.6L811.7,416.4z"/>
		<path d="M1139.6,362.3v50.3H970.4V128.8h169.2v50.3H1023v76.4h97.4v47.8H1023v59H1139.6z"/>
		<path d="M1241,412.6h-52.6V124.9h3.4L1385.4,305V128.8h52.7v287.5h-3.6l-193.6-180V412.6z"/>
		<path d="M1619.2,412.6h-52.7V180.6h-91.7v-51.8h236.1v51.8h-91.7V412.6z"/>
		<path d="M1864.2,416.4c-41.5,0-75.8-13.8-103-41.4c-27.1-27.8-40.6-62.6-40.6-104.2c0-40.6,13.5-75.1,40.6-103.6
			c27.3-28.2,62.2-42.3,104.5-42.3c42.1,0,76.4,14.1,103,42.3c26.6,27.7,39.9,62.1,39.9,103.2c0,40.7-13.5,75.3-40.6,103.8
			C1941.1,402.3,1906.5,416.4,1864.2,416.4z M1955.1,270.8c0-27.5-8.5-49.9-25.5-67.3c-17-17.8-38.7-26.7-65-26.7
			c-25.7,0-47.3,8.9-64.6,26.7c-17.3,17.6-25.9,40.1-25.9,67.3c0,26.5,8.6,48.7,25.9,66.7c17.3,18,38.8,27,64.6,27
			c25.6,0,47-9,64.3-27C1946.4,319.3,1955.1,297,1955.1,270.8z"/>
		<path d="M2108.2,412.6h-52.6V128.8h100.2c29.2,0,53.4,8.8,72.4,26.3c19.2,17.6,28.7,42.5,28.7,74.7c0,33-10.5,59-31.4,77.9
			c-20.5,18.5-45.7,27.8-75.4,27.8h-42V412.6z M2147.4,176.8h-39.1v110.6h31.4c19.3,0,34.7-5.1,46.4-15.4
			c11.7-10.3,17.5-24.2,17.5-41.9c0-17.4-5-30.6-15-39.7C2178.5,181.4,2164.8,176.8,2147.4,176.8z"/>
		<path d="M2353,412.6h-52.7V128.8h52.7V412.6z"/>
		<path d="M2524.9,124.9h3.4l137.6,285.1l-2.1,2.6h-54.1l-20.2-46.1h-127l-20,46.1h-53.1l-1.9-2.6L2524.9,124.9z M2526,222
			l-42.2,96.4h84.3L2526,222z"/>
	</g>
</g>
</svg>
