<?xml version="1.0" encoding="utf-8"?>
<!-- Generator: Adobe Illustrator 24.1.1, SVG Export Plug-In . SVG Version: 6.00 Build 0)  -->
<svg version="1.1" id="Layer_1" xmlns="http://www.w3.org/2000/svg" xmlns:xlink="http://www.w3.org/1999/xlink" x="0px" y="0px"
	 viewBox="0 0 421.8 463.1" style="enable-background:new 0 0 421.8 463.1;" xml:space="preserve">
<style type="text/css">
	.st0{fill:url(#path26_2_);}
	.st1{fill:url(#path28_2_);}
	.st2{fill:url(#path30_2_);}
	.st3{fill:url(#path32_2_);}
	.st4{fill:url(#path34_2_);}
	.st5{fill:url(#path36_2_);}
	.st6{fill:url(#SVGID_1_);}
	.st7{fill:url(#path40_2_);}
	.st8{fill:url(#path42_2_);}
	.st9{fill:url(#path44_2_);}
	.st10{fill:url(#path46_2_);}
	.st11{fill:url(#path48_2_);}
	.st12{fill:url(#SVGID_2_);}
	.st13{display:none;}
	.st14{display:inline;fill:url(#SVGID_3_);}
	.st15{display:inline;fill:url(#SVGID_4_);}
	.st16{display:inline;fill:url(#SVGID_5_);}
	.st17{display:inline;fill:url(#SVGID_6_);}
	.st18{display:inline;fill:url(#SVGID_7_);}
	.st19{display:inline;fill:url(#SVGID_8_);}
	.st20{display:inline;fill:url(#SVGID_9_);}
	.st21{display:inline;fill:url(#SVGID_10_);}
	.st22{display:inline;fill:url(#SVGID_11_);}
</style>
<g>
	<g>
		
			<linearGradient id="path26_2_" gradientUnits="userSpaceOnUse" x1="456.6125" y1="-40.8466" x2="-37.3875" y2="471.1534" gradientTransform="matrix(1 0 0 -1 0 466)">
			<stop  offset="0" style="stop-color:#00FF9E"/>
			<stop  offset="1" style="stop-color:#2CF6E6"/>
		</linearGradient>
		<path id="path26_1_" class="st0" d="M391,416.7c0,10.1-8.2,18.3-18.3,18.3H46.1c-10.1,0-18.3-8.2-18.3-18.3V135.6H391V416.7z
			 M385.5,41.3h-46.9v18.8c0,18.3-14.9,33.1-33.1,33.1c-18.3,0-33.1-14.9-33.1-33.1V41.3h-123v18.8c0,19.1-16.3,34.5-35.7,33
			c-17.3-1.3-30.6-16-30.6-33.4V41.3H36.3C16.2,41.3,0,57.6,0,77.6v349.2c0,20,16.3,36.3,36.3,36.3h349.2c20,0,36.3-16.2,36.3-36.3
			V77.6C421.8,57.6,405.6,41.3,385.5,41.3"/>
		
			<linearGradient id="path28_2_" gradientUnits="userSpaceOnUse" x1="422.9031" y1="-73.3708" x2="-71.0968" y2="438.6292" gradientTransform="matrix(1 0 0 -1 0 466)">
			<stop  offset="0" style="stop-color:#00FF9E"/>
			<stop  offset="1" style="stop-color:#2CF6E6"/>
		</linearGradient>
		<path id="path28_1_" class="st1" d="M65.4,234.6h71.8c2.4,0,4.4-2,4.4-4.4v-48.3c0-2.4-2-4.4-4.4-4.4H65.4c-2.4,0-4.4,2-4.4,4.4
			v48.3C61.1,232.7,63,234.6,65.4,234.6"/>
		
			<linearGradient id="path30_2_" gradientUnits="userSpaceOnUse" x1="478.7991" y1="-19.44" x2="-15.2009" y2="492.56" gradientTransform="matrix(1 0 0 -1 0 466)">
			<stop  offset="0" style="stop-color:#00FF9E"/>
			<stop  offset="1" style="stop-color:#2CF6E6"/>
		</linearGradient>
		<path id="path30_1_" class="st2" d="M173.4,234.6h71.7c2.4,0,4.4-2,4.4-4.4v-48.3c0-2.4-2-4.4-4.4-4.4h-71.7c-2.4,0-4.4,2-4.4,4.4
			v48.3C169,232.7,171,234.6,173.4,234.6"/>
		
			<linearGradient id="path32_2_" gradientUnits="userSpaceOnUse" x1="534.5137" y1="34.3159" x2="40.5138" y2="546.3159" gradientTransform="matrix(1 0 0 -1 0 466)">
			<stop  offset="0" style="stop-color:#00FF9E"/>
			<stop  offset="1" style="stop-color:#2CF6E6"/>
		</linearGradient>
		<path id="path32_1_" class="st3" d="M281.6,235.3h71.7c2.4,0,4.4-2,4.4-4.4v-48.3c0-2.4-2-4.4-4.4-4.4h-71.7c-2.4,0-4.4,2-4.4,4.4
			v48.3C277.3,233.3,279.3,235.3,281.6,235.3"/>
		
			<linearGradient id="path34_2_" gradientUnits="userSpaceOnUse" x1="383.2559" y1="-111.6241" x2="-110.7441" y2="400.3758" gradientTransform="matrix(1 0 0 -1 0 466)">
			<stop  offset="0" style="stop-color:#00FF9E"/>
			<stop  offset="1" style="stop-color:#2CF6E6"/>
		</linearGradient>
		<path id="path34_1_" class="st4" d="M65.4,313.9h71.7c2.4,0,4.4-2,4.4-4.4v-48.3c0-2.4-2-4.4-4.4-4.4H65.4c-2.4,0-4.4,2-4.4,4.4
			v48.2C61.1,312,63,313.9,65.4,313.9"/>
		
			<linearGradient id="path36_2_" gradientUnits="userSpaceOnUse" x1="438.8281" y1="-58.0057" x2="-55.172" y2="453.9943" gradientTransform="matrix(1 0 0 -1 0 466)">
			<stop  offset="0" style="stop-color:#00FF9E"/>
			<stop  offset="1" style="stop-color:#2CF6E6"/>
		</linearGradient>
		<path id="path36_1_" class="st5" d="M173.4,314.6h71.7c2.4,0,4.4-2,4.4-4.4v-48.3c0-2.4-2-4.4-4.4-4.4h-71.7c-2.4,0-4.4,2-4.4,4.4
			v48.2C169,312.7,171,314.6,173.4,314.6"/>
		
			<linearGradient id="SVGID_1_" gradientUnits="userSpaceOnUse" x1="495.3833" y1="-3.4388" x2="1.3833" y2="508.5613" gradientTransform="matrix(1 0 0 -1 0 466)">
			<stop  offset="0" style="stop-color:#00FF9E"/>
			<stop  offset="1" style="stop-color:#2CF6E6"/>
		</linearGradient>
		<path class="st6" d="M353.4,256.6h-71.7c-2.4,0-4.4,2-4.4,4.4v48.2c0,2.4,1.9,4.4,4.3,4.4h71.7c2.4,0,4.4-2,4.4-4.4v-48.3
			C357.8,258.6,355.8,256.6,353.4,256.6z M347,274.7L310.2,300l0,0l-6.9,4.7c-0.6,0.4-1.4,0.2-1.8-0.3l-4.7-6.8l-9.2-13.3
			c-0.3-0.5-0.2-1.1,0.3-1.5l7.1-4.9c0.5-0.3,1.1-0.2,1.5,0.3l8.5,12.3l36-24.6c0.6-0.4,1.4-0.3,1.8,0.3l4.6,6.7
			C347.8,273.5,347.6,274.3,347,274.7z"/>
		
			<linearGradient id="path40_2_" gradientUnits="userSpaceOnUse" x1="343.4314" y1="-150.0486" x2="-150.5685" y2="361.9514" gradientTransform="matrix(1 0 0 -1 0 466)">
			<stop  offset="0" style="stop-color:#00FF9E"/>
			<stop  offset="1" style="stop-color:#2CF6E6"/>
		</linearGradient>
		<path id="path40_1_" class="st7" d="M65.4,393.6h71.7c2.4,0,4.4-2,4.4-4.4v-48.3c0-2.4-2-4.4-4.4-4.4H65.4c-2.4,0-4.4,2-4.4,4.4
			v48.2C61.1,391.7,63,393.6,65.4,393.6"/>
		
			<linearGradient id="path42_2_" gradientUnits="userSpaceOnUse" x1="399.3533" y1="-96.0927" x2="-94.6466" y2="415.9073" gradientTransform="matrix(1 0 0 -1 0 466)">
			<stop  offset="0" style="stop-color:#00FF9E"/>
			<stop  offset="1" style="stop-color:#2CF6E6"/>
		</linearGradient>
		<path id="path42_1_" class="st8" d="M173.4,393.6h71.7c2.4,0,4.4-2,4.4-4.4v-48.3c0-2.4-2-4.4-4.4-4.4h-71.7c-2.4,0-4.4,2-4.4,4.4
			v48.2C169,391.7,171,393.6,173.4,393.6"/>
		
			<linearGradient id="path44_2_" gradientUnits="userSpaceOnUse" x1="455.4081" y1="-42.0086" x2="-38.5918" y2="469.9914" gradientTransform="matrix(1 0 0 -1 0 466)">
			<stop  offset="0" style="stop-color:#00FF9E"/>
			<stop  offset="1" style="stop-color:#2CF6E6"/>
		</linearGradient>
		<path id="path44_1_" class="st9" d="M281.6,393.6h71.7c2.4,0,4.4-2,4.4-4.4v-48.3c0-2.4-2-4.4-4.4-4.4h-71.7c-2.4,0-4.4,2-4.4,4.4
			v48.2C277.3,391.7,279.3,393.6,281.6,393.6"/>
		
			<linearGradient id="path46_2_" gradientUnits="userSpaceOnUse" x1="513.3962" y1="13.9409" x2="19.3963" y2="525.9409" gradientTransform="matrix(1 0 0 -1 0 466)">
			<stop  offset="0" style="stop-color:#00FF9E"/>
			<stop  offset="1" style="stop-color:#2CF6E6"/>
		</linearGradient>
		<path id="path46_1_" class="st10" d="M116.2,80.7c11.4,0,20.7-9.3,20.7-20.7V20.7c0-5.7-2.3-10.9-6.1-14.6
			c-3.7-3.7-8.9-6.1-14.6-6.1c-11.5,0-20.7,9.5-20.7,21v39C95.5,71.5,104.8,80.7,116.2,80.7"/>
		
			<linearGradient id="path48_2_" gradientUnits="userSpaceOnUse" x1="611.4323" y1="108.5303" x2="117.4323" y2="620.5303" gradientTransform="matrix(1 0 0 -1 0 466)">
			<stop  offset="0" style="stop-color:#00FF9E"/>
			<stop  offset="1" style="stop-color:#2CF6E6"/>
		</linearGradient>
		<path id="path48_1_" class="st11" d="M305.5,80.7c11.4,0,20.7-9.3,20.7-20.7V20.7c0-5.7-2.3-10.9-6.1-14.6
			c-3.8-3.7-8.9-6.1-14.6-6.1c-11.4,0-20.7,9.3-20.7,20.7V60C284.8,71.5,294.1,80.7,305.5,80.7"/>
		
			<linearGradient id="SVGID_2_" gradientUnits="userSpaceOnUse" x1="477.8818" y1="-20.325" x2="-16.1181" y2="491.675" gradientTransform="matrix(1 0 0 -1 0 466)">
			<stop  offset="0" style="stop-color:#00FF9E"/>
			<stop  offset="1" style="stop-color:#2CF6E6"/>
		</linearGradient>
		<path class="st12" d="M303.4,304.7l-0.2,0.1c-0.5,0.3-1.1,0.2-1.5-0.3l-0.1-0.2C302,305,302.8,305.1,303.4,304.7z"/>
	</g>
	<g class="st13">
		
			<linearGradient id="SVGID_3_" gradientUnits="userSpaceOnUse" x1="64.9128" y1="-418.7755" x2="-429.0872" y2="93.2245" gradientTransform="matrix(1 0 0 -1 0 466)">
			<stop  offset="0" style="stop-color:#00FF9E"/>
			<stop  offset="1" style="stop-color:#2CF6E6"/>
		</linearGradient>
		<path class="st14" d="M-460.2,344.5v50.3h-169.1V111.1h169.2v50.3h-116.7v76.4h97.4v47.8h-97.4v59L-460.2,344.5L-460.2,344.5z"/>
		
			<linearGradient id="SVGID_4_" gradientUnits="userSpaceOnUse" x1="218.8375" y1="-270.2623" x2="-275.1624" y2="241.7378" gradientTransform="matrix(1 0 0 -1 0 466)">
			<stop  offset="0" style="stop-color:#00FF9E"/>
			<stop  offset="1" style="stop-color:#2CF6E6"/>
		</linearGradient>
		<path class="st15" d="M-310.4,398.6h-3.4l-134.8-284.5l2.1-3h56.5l79.2,181.9l77.9-181.9h55.4l1.5,2.6L-310.4,398.6z"/>
		
			<linearGradient id="SVGID_5_" gradientUnits="userSpaceOnUse" x1="312.2556" y1="-180.1284" x2="-181.7443" y2="331.8717" gradientTransform="matrix(1 0 0 -1 0 466)">
			<stop  offset="0" style="stop-color:#00FF9E"/>
			<stop  offset="1" style="stop-color:#2CF6E6"/>
		</linearGradient>
		<path class="st16" d="M17.5,344.5v50.3h-169.2V111.1H17.5v50.3H-99.1v76.4h97.4v47.8h-97.4v59L17.5,344.5L17.5,344.5z"/>
		
			<linearGradient id="SVGID_6_" gradientUnits="userSpaceOnUse" x1="445.975" y1="-51.1101" x2="-48.025" y2="460.8899" gradientTransform="matrix(1 0 0 -1 0 466)">
			<stop  offset="0" style="stop-color:#00FF9E"/>
			<stop  offset="1" style="stop-color:#2CF6E6"/>
		</linearGradient>
		<path class="st17" d="M118.9,394.9H66.3V107.2h3.4l193.6,180.1V111.1H316v287.5h-3.6l-193.6-180L118.9,394.9L118.9,394.9z"/>
		
			<linearGradient id="SVGID_7_" gradientUnits="userSpaceOnUse" x1="614.5212" y1="111.5108" x2="120.5213" y2="623.5108" gradientTransform="matrix(1 0 0 -1 0 466)">
			<stop  offset="0" style="stop-color:#00FF9E"/>
			<stop  offset="1" style="stop-color:#2CF6E6"/>
		</linearGradient>
		<path class="st18" d="M497.1,394.9h-52.7v-232h-91.7v-51.8h236.1v51.8h-91.7L497.1,394.9L497.1,394.9z"/>
		
			<linearGradient id="SVGID_8_" gradientUnits="userSpaceOnUse" x1="731.5459" y1="224.4212" x2="237.546" y2="736.4213" gradientTransform="matrix(1 0 0 -1 0 466)">
			<stop  offset="0" style="stop-color:#00FF9E"/>
			<stop  offset="1" style="stop-color:#2CF6E6"/>
		</linearGradient>
		<path class="st19" d="M742.1,398.6c-41.5,0-75.8-13.8-103-41.4c-27.1-27.8-40.6-62.6-40.6-104.2c0-40.6,13.5-75.1,40.6-103.6
			c27.3-28.2,62.2-42.3,104.5-42.3c42.1,0,76.4,14.1,103,42.3c26.6,27.7,39.9,62.1,39.9,103.2c0,40.7-13.5,75.3-40.6,103.8
			C819,384.5,784.4,398.6,742.1,398.6z M833,253c0-27.5-8.5-49.9-25.5-67.3c-17-17.8-38.7-26.7-65-26.7c-25.7,0-47.3,8.9-64.6,26.7
			C660.6,203.3,652,225.8,652,253c0,26.5,8.6,48.7,25.9,66.7s38.8,27,64.6,27c25.6,0,47-9,64.3-27C824.3,301.5,833,279.3,833,253z"
			/>
		
			<linearGradient id="SVGID_9_" gradientUnits="userSpaceOnUse" x1="868.6083" y1="356.665" x2="374.6084" y2="868.6651" gradientTransform="matrix(1 0 0 -1 0 466)">
			<stop  offset="0" style="stop-color:#00FF9E"/>
			<stop  offset="1" style="stop-color:#2CF6E6"/>
		</linearGradient>
		<path class="st20" d="M986.1,394.9h-52.6V111.1h100.2c29.2,0,53.4,8.8,72.4,26.3c19.2,17.6,28.7,42.5,28.7,74.7
			c0,33-10.5,59-31.4,77.9c-20.5,18.5-45.7,27.8-75.4,27.8h-42v77.1H986.1z M1025.3,159.1h-39.1v110.6h31.4
			c19.3,0,34.7-5.1,46.4-15.4s17.5-24.2,17.5-41.9c0-17.4-5-30.6-15-39.7C1056.4,163.6,1042.7,159.1,1025.3,159.1z"/>
		
			<linearGradient id="SVGID_10_" gradientUnits="userSpaceOnUse" x1="970.8016" y1="455.2657" x2="476.8017" y2="967.2657" gradientTransform="matrix(1 0 0 -1 0 466)">
			<stop  offset="0" style="stop-color:#00FF9E"/>
			<stop  offset="1" style="stop-color:#2CF6E6"/>
		</linearGradient>
		<path class="st21" d="M1230.9,394.9h-52.7V111.1h52.7V394.9z"/>
		
			<linearGradient id="SVGID_11_" gradientUnits="userSpaceOnUse" x1="1040.2406" y1="522.2634" x2="546.2405" y2="1034.2633" gradientTransform="matrix(1 0 0 -1 0 466)">
			<stop  offset="0" style="stop-color:#00FF9E"/>
			<stop  offset="1" style="stop-color:#2CF6E6"/>
		</linearGradient>
		<path class="st22" d="M1402.8,107.2h3.4l137.6,285.1l-2.1,2.6h-54.1l-20.2-46.1h-127l-20,46.1h-53.1l-1.9-2.6L1402.8,107.2z
			 M1403.9,204.3l-42.2,96.4h84.3L1403.9,204.3z"/>
	</g>
</g>
</svg>
