<?xml version="1.0" encoding="utf-8"?>
<!-- Generator: Adobe Illustrator 24.1.1, SVG Export Plug-In . SVG Version: 6.00 Build 0)  -->
<svg version="1.1" id="Layer_1" xmlns="http://www.w3.org/2000/svg" xmlns:xlink="http://www.w3.org/1999/xlink" x="0px" y="0px"
	 viewBox="0 0 2666 498.6" style="enable-background:new 0 0 2666 498.6;" xml:space="preserve">
<style type="text/css">
	.st0{display:none;fill:#242424;}
	.st1{display:none;}
	.st2{display:inline;fill:#854DFF;}
	.st3{display:inline;fill:#7A4AFF;}
	.st4{display:inline;fill:#FFFFFF;}
	.st5{fill:url(#path26_3_);}
	.st6{fill:url(#path28_3_);}
	.st7{fill:url(#path30_3_);}
	.st8{fill:url(#path32_3_);}
	.st9{fill:url(#path34_3_);}
	.st10{fill:url(#path36_3_);}
	.st11{fill:url(#SVGID_1_);}
	.st12{fill:url(#path40_3_);}
	.st13{fill:url(#path42_3_);}
	.st14{fill:url(#path44_3_);}
	.st15{fill:url(#path46_3_);}
	.st16{fill:url(#path48_3_);}
	.st17{fill:url(#SVGID_2_);}
</style>
<rect x="0.3" class="st0" width="2665.6" height="498.6"/>
<g>
	<g class="st1">
		<path id="path26_1_" class="st2" d="M392,434.8c0,10.1-8.2,18.3-18.3,18.3H47.1c-10.1,0-18.3-8.2-18.3-18.3V153.7H392V434.8z
			 M386.5,59.4h-46.9v18.8c0,18.3-14.9,33.1-33.1,33.1c-18.3,0-33.1-14.9-33.1-33.1V59.4h-123v18.8c0,19.1-16.3,34.5-35.7,33
			c-17.3-1.3-30.6-16-30.6-33.4V59.4H37.3C17.2,59.4,1,75.7,1,95.7v349.2c0,20,16.3,36.3,36.3,36.3h349.2c20,0,36.3-16.2,36.3-36.3
			V95.7C422.8,75.7,406.6,59.4,386.5,59.4"/>
		<path id="path28_1_" class="st2" d="M66.4,252.7h71.8c2.4,0,4.4-2,4.4-4.4V200c0-2.4-2-4.4-4.4-4.4H66.4c-2.4,0-4.4,2-4.4,4.4
			v48.3C62.1,250.8,64,252.7,66.4,252.7"/>
		<path id="path30_1_" class="st2" d="M174.4,252.7h71.7c2.4,0,4.4-2,4.4-4.4V200c0-2.4-2-4.4-4.4-4.4h-71.7c-2.4,0-4.4,2-4.4,4.4
			v48.3C170,250.8,172,252.7,174.4,252.7"/>
		<path id="path32_1_" class="st2" d="M282.6,253.4h71.7c2.4,0,4.4-2,4.4-4.4v-48.3c0-2.4-2-4.4-4.4-4.4h-71.7c-2.4,0-4.4,2-4.4,4.4
			V249C278.3,251.4,280.3,253.4,282.6,253.4"/>
		<path id="path34_1_" class="st2" d="M66.4,332h71.7c2.4,0,4.4-2,4.4-4.4v-48.3c0-2.4-2-4.4-4.4-4.4H66.4c-2.4,0-4.4,2-4.4,4.4
			v48.2C62.1,330.1,64,332,66.4,332"/>
		<path id="path36_1_" class="st2" d="M174.4,332.7h71.7c2.4,0,4.4-2,4.4-4.4V280c0-2.4-2-4.4-4.4-4.4h-71.7c-2.4,0-4.4,2-4.4,4.4
			v48.2C170,330.8,172,332.7,174.4,332.7"/>
		<path class="st3" d="M354.4,274.7h-71.7c-2.4,0-4.4,2-4.4,4.4v48.2c0,2.4,1.9,4.4,4.3,4.4h71.7c2.4,0,4.4-2,4.4-4.4V279
			C358.8,276.7,356.8,274.7,354.4,274.7z M348,292.8l-36.8,25.3l0,0l-6.9,4.7c-0.6,0.4-1.4,0.2-1.8-0.3l-4.7-6.8l-9.2-13.3
			c-0.3-0.5-0.2-1.1,0.3-1.5l7.1-4.9c0.5-0.3,1.1-0.2,1.5,0.3l8.5,12.3l36-24.6c0.6-0.4,1.4-0.3,1.8,0.3l4.6,6.7
			C348.8,291.6,348.6,292.4,348,292.8z"/>
		<path id="path40_1_" class="st2" d="M66.4,411.7h71.7c2.4,0,4.4-2,4.4-4.4V359c0-2.4-2-4.4-4.4-4.4H66.4c-2.4,0-4.4,2-4.4,4.4
			v48.2C62.1,409.8,64,411.7,66.4,411.7"/>
		<path id="path42_1_" class="st2" d="M174.4,411.7h71.7c2.4,0,4.4-2,4.4-4.4V359c0-2.4-2-4.4-4.4-4.4h-71.7c-2.4,0-4.4,2-4.4,4.4
			v48.2C170,409.8,172,411.7,174.4,411.7"/>
		<path id="path44_1_" class="st2" d="M282.6,411.7h71.7c2.4,0,4.4-2,4.4-4.4V359c0-2.4-2-4.4-4.4-4.4h-71.7c-2.4,0-4.4,2-4.4,4.4
			v48.2C278.3,409.8,280.3,411.7,282.6,411.7"/>
		<path id="path46_1_" class="st3" d="M117.2,98.8c11.4,0,20.7-9.3,20.7-20.7V38.8c0-5.7-2.3-10.9-6.1-14.6
			c-3.7-3.7-8.9-6.1-14.6-6.1c-11.5,0-20.7,9.5-20.7,21v39C96.5,89.6,105.8,98.8,117.2,98.8"/>
		<path id="path48_1_" class="st3" d="M306.5,98.8c11.4,0,20.7-9.3,20.7-20.7V38.8c0-5.7-2.3-10.9-6.1-14.6
			c-3.8-3.7-8.9-6.1-14.6-6.1c-11.4,0-20.7,9.3-20.7,20.7v39.3C285.8,89.6,295.1,98.8,306.5,98.8"/>
		<path class="st4" d="M304.4,322.8l-0.2,0.1c-0.5,0.3-1.1,0.2-1.5-0.3l-0.1-0.2C303,323.1,303.8,323.2,304.4,322.8z"/>
	</g>
	<g>
		<path d="M661.9,362.3v50.3H492.8V128.8H662v50.3H545.3v76.4h97.4v47.8h-97.4v59H661.9z"/>
		<path d="M811.7,416.4h-3.4L673.5,131.9l2.1-3h56.5l79.2,181.9l77.9-181.9h55.4l1.5,2.6L811.7,416.4z"/>
		<path d="M1139.6,362.3v50.3H970.4V128.8h169.2v50.3H1023v76.4h97.4v47.8H1023v59H1139.6z"/>
		<path d="M1241,412.6h-52.6V124.9h3.4L1385.4,305V128.8h52.7v287.5h-3.6l-193.6-180L1241,412.6L1241,412.6z"/>
		<path d="M1619.2,412.6h-52.7v-232h-91.7v-51.8h236.1v51.8h-91.7L1619.2,412.6L1619.2,412.6z"/>
		<path d="M1864.2,416.4c-41.5,0-75.8-13.8-103-41.4c-27.1-27.8-40.6-62.6-40.6-104.2c0-40.6,13.5-75.1,40.6-103.6
			c27.3-28.2,62.2-42.3,104.5-42.3c42.1,0,76.4,14.1,103,42.3c26.6,27.7,39.9,62.1,39.9,103.2c0,40.7-13.5,75.3-40.6,103.8
			C1941.1,402.3,1906.5,416.4,1864.2,416.4z M1955.1,270.8c0-27.5-8.5-49.9-25.5-67.3c-17-17.8-38.7-26.7-65-26.7
			c-25.7,0-47.3,8.9-64.6,26.7c-17.3,17.6-25.9,40.1-25.9,67.3c0,26.5,8.6,48.7,25.9,66.7s38.8,27,64.6,27c25.6,0,47-9,64.3-27
			C1946.4,319.3,1955.1,297,1955.1,270.8z"/>
		<path d="M2108.2,412.6h-52.6V128.8h100.2c29.2,0,53.4,8.8,72.4,26.3c19.2,17.6,28.7,42.5,28.7,74.7c0,33-10.5,59-31.4,77.9
			c-20.5,18.5-45.7,27.8-75.4,27.8h-42v77.1H2108.2z M2147.4,176.8h-39.1v110.6h31.4c19.3,0,34.7-5.1,46.4-15.4s17.5-24.2,17.5-41.9
			c0-17.4-5-30.6-15-39.7C2178.5,181.4,2164.8,176.8,2147.4,176.8z"/>
		<path d="M2353,412.6h-52.7V128.8h52.7V412.6z"/>
		<path d="M2524.9,124.9h3.4L2665.9,410l-2.1,2.6h-54.1l-20.2-46.1h-127l-20,46.1h-53.1l-1.9-2.6L2524.9,124.9z M2526,222
			l-42.2,96.4h84.3L2526,222z"/>
	</g>
</g>
<g id="Layer_2">
	<linearGradient id="path26_3_" gradientUnits="userSpaceOnUse" x1="442.4161" y1="550.1317" x2="-32.7839" y2="-25.8683">
		<stop  offset="0" style="stop-color:#00FF9E"/>
		<stop  offset="1" style="stop-color:#2CF6E6"/>
	</linearGradient>
	<path id="path26_2_" class="st5" d="M391.4,434.4c0,10.1-8.2,18.3-18.3,18.3H46.4c-10.1,0-18.3-8.2-18.3-18.3V153.3h363.2V434.4z
		 M385.9,59H339v18.8c0,18.3-14.9,33.1-33.1,33.1c-18.3,0-33.1-14.9-33.1-33.1V59h-123v18.8c0,19.1-16.3,34.5-35.7,33
		c-17.3-1.3-30.6-16-30.6-33.4V59H36.6C16.5,59,0.3,75.3,0.3,95.3v349.2c0,20,16.3,36.3,36.3,36.3h349.2c20,0,36.3-16.2,36.3-36.3
		V95.3C422.1,75.3,405.9,59,385.9,59"/>
	<linearGradient id="path28_3_" gradientUnits="userSpaceOnUse" x1="399.8493" y1="585.2493" x2="-75.3507" y2="9.2493">
		<stop  offset="0" style="stop-color:#00FF9E"/>
		<stop  offset="1" style="stop-color:#2CF6E6"/>
	</linearGradient>
	<path id="path28_2_" class="st6" d="M65.8,252.3h71.8c2.4,0,4.4-2,4.4-4.4v-48.3c0-2.4-2-4.4-4.4-4.4H65.8c-2.4,0-4.4,2-4.4,4.4
		v48.3C61.4,250.4,63.3,252.3,65.8,252.3"/>
	<linearGradient id="path30_3_" gradientUnits="userSpaceOnUse" x1="464.069" y1="532.2681" x2="-11.131" y2="-43.7319">
		<stop  offset="0" style="stop-color:#00FF9E"/>
		<stop  offset="1" style="stop-color:#2CF6E6"/>
	</linearGradient>
	<path id="path30_2_" class="st7" d="M173.8,252.3h71.7c2.4,0,4.4-2,4.4-4.4v-48.3c0-2.4-2-4.4-4.4-4.4h-71.7c-2.4,0-4.4,2-4.4,4.4
		v48.3C169.4,250.4,171.4,252.3,173.8,252.3"/>
	<linearGradient id="path32_3_" gradientUnits="userSpaceOnUse" x1="528.1383" y1="479.4109" x2="52.9383" y2="-96.5891">
		<stop  offset="0" style="stop-color:#00FF9E"/>
		<stop  offset="1" style="stop-color:#2CF6E6"/>
	</linearGradient>
	<path id="path32_2_" class="st8" d="M282,253h71.7c2.4,0,4.4-2,4.4-4.4v-48.3c0-2.4-2-4.4-4.4-4.4h-71.7c-2.4,0-4.4,2-4.4,4.4v48.3
		C277.6,251,279.6,253,282,253"/>
	<linearGradient id="path34_3_" gradientUnits="userSpaceOnUse" x1="360.8964" y1="617.3855" x2="-114.3036" y2="41.3855">
		<stop  offset="0" style="stop-color:#00FF9E"/>
		<stop  offset="1" style="stop-color:#2CF6E6"/>
	</linearGradient>
	<path id="path34_2_" class="st9" d="M65.8,331.6h71.7c2.4,0,4.4-2,4.4-4.4V279c0-2.4-2-4.4-4.4-4.4H65.8c-2.4,0-4.4,2-4.4,4.4v48.2
		C61.4,329.8,63.3,331.6,65.8,331.6"/>
	<linearGradient id="path36_3_" gradientUnits="userSpaceOnUse" x1="424.8023" y1="564.6631" x2="-50.3977" y2="-11.3369">
		<stop  offset="0" style="stop-color:#00FF9E"/>
		<stop  offset="1" style="stop-color:#2CF6E6"/>
	</linearGradient>
	<path id="path36_2_" class="st10" d="M173.8,332.4h71.7c2.4,0,4.4-2,4.4-4.4v-48.3c0-2.4-2-4.4-4.4-4.4h-71.7c-2.4,0-4.4,2-4.4,4.4
		v48.2C169.4,330.4,171.4,332.4,173.8,332.4"/>
	<linearGradient id="SVGID_1_" gradientUnits="userSpaceOnUse" x1="489.7015" y1="511.1212" x2="14.5015" y2="-64.8788">
		<stop  offset="0" style="stop-color:#00FF9E"/>
		<stop  offset="1" style="stop-color:#2CF6E6"/>
	</linearGradient>
	<path class="st11" d="M353.8,274.4h-71.7c-2.4,0-4.4,2-4.4,4.4V327c0,2.4,1.9,4.4,4.3,4.4h71.7c2.4,0,4.4-2,4.4-4.4v-48.3
		C358.1,276.4,356.1,274.4,353.8,274.4z M347.4,292.4l-36.8,25.3l0,0l-6.9,4.7c-0.6,0.4-1.4,0.2-1.8-0.3l-4.7-6.8l-9.2-13.3
		c-0.3-0.5-0.2-1.1,0.3-1.5l7.1-4.9c0.5-0.3,1.1-0.2,1.5,0.3l8.5,12.3l36-24.6c0.6-0.4,1.4-0.3,1.8,0.3l4.6,6.7
		C348.1,291.3,348,292,347.4,292.4z"/>
	<linearGradient id="path40_3_" gradientUnits="userSpaceOnUse" x1="321.7726" y1="649.6627" x2="-153.4274" y2="73.6626">
		<stop  offset="0" style="stop-color:#00FF9E"/>
		<stop  offset="1" style="stop-color:#2CF6E6"/>
	</linearGradient>
	<path id="path40_2_" class="st12" d="M65.8,411.4h71.7c2.4,0,4.4-2,4.4-4.4v-48.3c0-2.4-2-4.4-4.4-4.4H65.8c-2.4,0-4.4,2-4.4,4.4
		v48.2C61.4,409.4,63.3,411.4,65.8,411.4"/>
	<linearGradient id="path42_3_" gradientUnits="userSpaceOnUse" x1="386.0221" y1="596.6568" x2="-89.1779" y2="20.6568">
		<stop  offset="0" style="stop-color:#00FF9E"/>
		<stop  offset="1" style="stop-color:#2CF6E6"/>
	</linearGradient>
	<path id="path42_2_" class="st13" d="M173.8,411.4h71.7c2.4,0,4.4-2,4.4-4.4v-48.3c0-2.4-2-4.4-4.4-4.4h-71.7c-2.4,0-4.4,2-4.4,4.4
		v48.2C169.4,409.4,171.4,411.4,173.8,411.4"/>
	<linearGradient id="path44_3_" gradientUnits="userSpaceOnUse" x1="450.4248" y1="543.5245" x2="-24.7752" y2="-32.4755">
		<stop  offset="0" style="stop-color:#00FF9E"/>
		<stop  offset="1" style="stop-color:#2CF6E6"/>
	</linearGradient>
	<path id="path44_2_" class="st14" d="M282,411.4h71.7c2.4,0,4.4-2,4.4-4.4v-48.3c0-2.4-2-4.4-4.4-4.4h-71.7c-2.4,0-4.4,2-4.4,4.4
		v48.2C277.6,409.4,279.6,411.4,282,411.4"/>
	<linearGradient id="path46_3_" gradientUnits="userSpaceOnUse" x1="490.0381" y1="510.8436" x2="14.8381" y2="-65.1564">
		<stop  offset="0" style="stop-color:#00FF9E"/>
		<stop  offset="1" style="stop-color:#2CF6E6"/>
	</linearGradient>
	<path id="path46_2_" class="st15" d="M116.5,98.4c11.4,0,20.7-9.3,20.7-20.7V38.4c0-5.7-2.3-10.9-6.1-14.6
		c-3.7-3.7-8.9-6.1-14.6-6.1c-11.5,0-20.7,9.5-20.7,21v39C95.8,89.2,105.2,98.4,116.5,98.4"/>
	<linearGradient id="path48_3_" gradientUnits="userSpaceOnUse" x1="602.6748" y1="417.9183" x2="127.4748" y2="-158.0817">
		<stop  offset="0" style="stop-color:#00FF9E"/>
		<stop  offset="1" style="stop-color:#2CF6E6"/>
	</linearGradient>
	<path id="path48_2_" class="st16" d="M305.9,98.4c11.4,0,20.7-9.3,20.7-20.7V38.4c0-5.7-2.3-10.9-6.1-14.6
		c-3.8-3.7-8.9-6.1-14.6-6.1c-11.4,0-20.7,9.3-20.7,20.7v39.3C285.1,89.2,294.5,98.4,305.9,98.4"/>
	<linearGradient id="SVGID_2_" gradientUnits="userSpaceOnUse" x1="471.2171" y1="526.3709" x2="-3.9829" y2="-49.6291">
		<stop  offset="0" style="stop-color:#00FF9E"/>
		<stop  offset="1" style="stop-color:#2CF6E6"/>
	</linearGradient>
	<path class="st17" d="M303.8,322.4l-0.2,0.1c-0.5,0.3-1.1,0.2-1.5-0.3l-0.1-0.2C302.4,322.8,303.1,322.9,303.8,322.4z"/>
</g>
</svg>
