<svg width="995" height="551" viewBox="0 0 995 551" fill="none" xmlns="http://www.w3.org/2000/svg">
<path d="M61.848 550.312C61.848 550.312 -60.2686 419.201 41.1954 277.247C131.22 151.301 236.182 159.91 313.192 211.023C345.992 232.787 440.554 213.707 521.039 85.5479C630.8 -89.2224 1011.27 16.7761 941.891 285.667C908.32 415.789 1044.06 420.517 974.902 550.587L61.848 550.312Z" fill="#E0FFF3"/>
<path d="M296.36 296.836C296.36 296.836 235.95 210.845 212.34 221.99C188.734 233.14 296.36 296.836 296.36 296.836Z" fill="#B6FFD3"/>
<path d="M292.522 273.73C292.522 273.73 283.291 209.071 268.745 211.609C254.199 214.147 292.522 273.73 292.522 273.73Z" fill="#B6FFD3"/>
<path d="M241.447 475.257C241.447 475.257 247.251 446.488 224.702 442.873C224.702 442.873 209.407 442.338 200.399 448.105C200.399 448.105 225.976 462.869 222.933 467.461C219.896 472.048 195.62 448.953 195.62 448.953C195.62 448.953 168.203 460.961 162.087 469.661C162.087 469.661 194.486 475.434 190.409 479.132C186.327 482.829 152.336 478.388 152.336 478.388C152.336 478.388 130.431 496.033 139.969 510.08C149.512 524.127 160.402 524.028 163.845 521.584C167.293 519.145 184.163 498.977 186.311 501.718C188.454 504.463 181.032 521.49 172.249 527.003C172.249 527.003 199.832 536.286 208.138 524.517C216.448 512.748 212.605 503.6 217.868 496.418C223.136 489.236 229.174 485.877 228.098 490.796C227.016 495.721 216.011 506.076 215.965 515.483C215.913 524.896 214.982 531.746 225.731 523.425C236.481 515.104 250.756 495.857 246.102 485.559C241.447 475.257 241.447 475.257 241.447 475.257Z" fill="#55D689"/>
<path d="M152.086 503.834C152.086 503.834 216.422 464.565 241.447 475.257C241.447 475.257 250.028 483.079 264.803 486.319L268.688 489.652C268.688 489.652 250.585 484.01 246.102 485.559C246.102 485.559 239.461 458.698 152.086 503.834Z" fill="#089B43"/>
<path d="M264.803 486.319C264.803 486.319 284.747 488.872 296.147 506.97L293.713 508.629C293.713 508.629 278.434 491.868 266.072 488.877C253.715 485.887 264.803 486.319 264.803 486.319Z" fill="#3A49CD"/>
<path d="M261.137 391.31C261.137 391.31 307.853 365.146 286.053 329.641C286.053 329.641 268.615 307.841 249.924 302.234C249.924 302.234 259.894 355.181 249.924 356.424C239.96 357.672 243.075 296.628 243.075 296.628C243.075 296.628 193.867 272.96 174.558 274.827C174.558 274.827 205.08 326.526 195.116 325.283C185.146 324.035 150.89 271.712 150.89 271.712C150.89 271.712 100.434 262.372 92.3369 292.27C84.2396 322.168 97.319 337.115 104.797 338.987C112.271 340.854 160.23 340.23 158.987 346.46C157.739 352.69 125.35 362.654 107.288 357.048C107.288 357.048 127.217 406.256 153.381 403.765C179.54 401.274 187.637 385.079 203.832 383.831C220.026 382.588 231.863 386.946 223.765 391.31C215.668 395.668 188.261 392.735 175.182 403.859C162.102 414.977 151.509 421.826 175.806 426.809C200.098 431.796 243.699 428.681 252.415 409.995C261.137 391.31 261.137 391.31 261.137 391.31Z" fill="#93FCBD"/>
<path d="M115.386 301.61C115.386 301.61 246.19 343.969 261.137 391.31C261.137 391.31 260.513 412.486 273.597 436.778V446.118C273.597 446.118 259.894 414.353 252.415 409.995C252.415 409.995 281.695 368.885 115.386 301.61Z" fill="#07C653"/>
<path d="M273.597 436.778C273.597 436.778 293.77 467.409 282.266 504.697L277.076 503.304C277.076 503.304 282.116 462.235 271.564 441.578C261.007 420.922 273.597 436.778 273.597 436.778Z" fill="#3A49CD"/>
<path d="M308.618 172.428L238.722 533.784C237.302 541.133 242.93 547.956 250.418 547.956H287.28L308.618 172.428Z" fill="#1B53BF"/>
<path d="M773.236 275.867C773.236 275.867 741.794 255.813 758.377 231.994C758.377 231.994 771.371 217.532 784.59 214.38C784.59 214.38 775.548 250.795 782.426 252.064C789.305 253.322 789.578 210.755 789.578 210.755C789.578 210.755 824.742 196.261 838.093 198.331C838.093 198.331 814.805 233.061 821.783 232.593C828.769 232.124 854.676 197.109 854.676 197.109C854.676 197.109 890.129 192.626 894.571 213.74C899.005 234.855 889.317 244.725 884.046 245.729C878.767 246.728 845.444 244.382 846.065 248.761C846.678 253.14 868.806 261.367 881.585 258.19C881.585 258.19 865.764 291.608 847.673 288.831C829.582 286.054 824.593 274.473 813.38 272.959C802.175 271.446 793.772 274.005 799.225 277.359C804.678 280.713 823.855 279.772 832.507 288.025C841.159 296.278 848.253 301.469 831.156 303.965C814.068 306.456 783.877 302.55 778.556 289.211C773.236 275.867 773.236 275.867 773.236 275.867Z" fill="#93FCBD"/>
<path d="M878.168 219.317C878.168 219.317 785.517 243.551 773.237 275.867C773.237 275.867 772.829 290.621 762.76 306.992L762.385 313.488C762.385 313.488 773.188 291.942 778.557 289.212C778.557 289.212 759.839 259.454 878.168 219.317Z" fill="#93F4D1"/>
<path d="M762.761 306.991C762.761 306.991 747.51 327.487 754.021 353.875L757.685 353.11C757.685 353.11 755.823 324.351 763.985 310.409C772.148 296.466 762.761 306.991 762.761 306.991Z" fill="#93B3F4"/>
<path d="M688.585 188.815C688.585 188.815 640.277 178.207 650.033 140.98C650.033 140.98 659.616 117.035 674.626 107.072C674.626 107.072 680.006 156.545 689.15 154.976C698.293 153.406 679.182 100.281 679.182 100.281C679.182 100.281 716.338 66.1717 733.912 62.649C733.912 62.649 720.785 116.529 729.254 112.757C737.731 108.985 753.996 53.5537 753.996 53.5537C753.996 53.5537 796.093 31.7753 811.267 56.0341C826.434 80.2946 818.874 97.014 812.765 100.668C806.664 104.324 764.097 116.625 766.865 121.797C769.641 126.969 800.939 127.1 815.408 117.304C815.408 117.304 810.969 166.143 787.184 170.951C763.391 175.759 751.887 163.613 737.237 166.851C722.588 170.089 713.295 177.115 721.624 178.8C729.944 180.483 753.392 170.549 767.932 176.874C782.471 183.198 793.669 186.418 773.531 197.333C753.4 208.249 714.017 217.178 701.305 202.997C688.585 188.815 688.585 188.815 688.585 188.815Z" fill="#BFFFD8"/>
<path d="M793.391 70.4716C793.391 70.4716 689.113 142.964 688.586 188.816C688.586 188.816 694.812 207.372 689.754 232.35L692.252 240.608C692.252 240.608 695.858 208.854 701.298 202.998C701.298 202.998 664.399 174.502 793.391 70.4716Z" fill="#51F5C3"/>
<path d="M689.753 232.351C689.753 232.351 680.134 264.833 700.288 294.715L704.502 292.089C704.502 292.089 689.044 257.137 692.839 236.048C696.634 214.96 689.753 232.351 689.753 232.351Z" fill="white"/>
<path d="M309.455 170.967L263.128 525.76C261.594 537.523 270.753 547.956 282.615 547.956H350.581L312.263 169.688L309.455 170.967Z" fill="#0B6BC5"/>
<path d="M309.451 170.968L288.718 523.498C287.938 536.77 298.487 547.956 311.78 547.956H413.142L309.451 170.968Z" fill="#1B78BB"/>
<path d="M308.679 173.846L318.76 523.498C317.98 536.77 328.528 547.956 341.822 547.956H443.184L308.679 173.846Z" fill="#2886CA"/>
<path d="M793.98 547.956H394.314C384.338 547.956 375.778 540.826 373.988 531.008L313.172 198.433C310.41 183.336 322.007 169.425 337.358 169.425H732.316C742.293 169.425 750.853 176.556 752.643 186.372L814.307 523.576C816.626 536.265 806.883 547.956 793.98 547.956Z" fill="white"/>
<path d="M321.086 241.627H763.027L751.698 178.834C750.714 173.386 745.974 169.424 740.436 169.424H312.365C310.025 169.424 308.259 171.544 308.676 173.845L321.086 241.627Z" fill="#3BA2EC"/>
<path d="M331.417 150.529C320.855 150.529 312.258 159.12 312.258 169.682H315.94C315.94 161.148 322.883 154.206 331.417 154.206C339.956 154.206 346.904 161.148 346.904 169.682C346.904 171.399 346.624 173.047 346.109 174.587C344.585 179.132 341.007 182.746 336.482 184.312C335.161 184.774 333.757 185.06 332.301 185.144V188.82C334.002 188.748 335.64 188.451 337.2 187.952C343.41 185.986 348.267 180.926 349.947 174.587C350.358 173.016 350.581 171.378 350.581 169.682C350.581 159.12 341.985 150.529 331.417 150.529Z" fill="#51A5F2"/>
<path d="M337.346 186.849C337.346 187.229 337.294 187.604 337.2 187.952C336.711 189.71 335.104 190.994 333.196 190.994C330.907 190.994 329.051 189.138 329.051 186.849C329.051 184.556 330.907 182.699 333.196 182.699C334.532 182.699 335.723 183.334 336.482 184.312C337.029 185.014 337.346 185.893 337.346 186.849Z" fill="#69CEFA"/>
<path d="M400.12 150.527C389.554 150.527 380.955 159.116 380.955 169.682H384.632C384.632 161.146 391.58 154.204 400.12 154.204C408.655 154.204 415.597 161.146 415.597 169.682C415.597 171.396 415.319 173.043 414.8 174.582C413.283 179.132 409.702 182.744 405.181 184.309C403.861 184.772 402.455 185.058 400.996 185.142V188.818C402.701 188.746 404.336 188.449 405.892 187.95C412.112 185.984 416.965 180.924 418.643 174.582C419.06 173.017 419.279 171.374 419.279 169.682C419.279 159.116 410.685 150.527 400.12 150.527Z" fill="#51A5F2"/>
<path d="M406.038 186.851C406.038 187.23 405.98 187.605 405.885 187.953C405.401 189.711 403.801 190.995 401.885 190.995C399.596 190.995 397.738 189.139 397.738 186.851C397.738 184.557 399.596 182.701 401.885 182.701C403.227 182.701 404.417 183.335 405.175 184.313C405.717 185.015 406.038 185.894 406.038 186.851Z" fill="#69CEFA"/>
<path d="M468.808 150.53C458.246 150.53 449.649 159.12 449.649 169.685H453.327C453.327 161.149 460.269 154.206 468.808 154.206C477.347 154.206 484.289 161.149 484.289 169.685C484.289 171.4 484.012 173.047 483.493 174.586C481.971 179.135 478.391 182.747 473.876 184.313C472.55 184.776 471.143 185.062 469.69 185.145V188.822C471.385 188.749 473.029 188.453 474.58 187.953C480.801 185.982 485.655 180.927 487.333 174.586C487.743 173.02 487.967 171.377 487.967 169.685C487.967 159.12 479.371 150.53 468.808 150.53Z" fill="#51A5F2"/>
<path d="M474.735 186.849C474.735 187.229 474.684 187.603 474.581 187.951C474.098 189.709 472.495 190.994 470.585 190.994C468.294 190.994 466.436 189.137 466.436 186.849C466.436 184.556 468.294 182.699 470.585 182.699C471.921 182.699 473.115 183.333 473.877 184.311C474.417 185.013 474.735 185.892 474.735 186.849Z" fill="#69CEFA"/>
<path d="M537.503 150.528C526.935 150.528 518.347 159.118 518.347 169.684H522.023C522.023 161.147 528.964 154.204 537.503 154.204C546.041 154.204 552.989 161.147 552.989 169.684C552.989 171.398 552.711 173.046 552.191 174.584C550.675 179.134 547.093 182.746 542.564 184.311C541.246 184.775 539.848 185.06 538.381 185.143V188.82C540.083 188.747 541.722 188.451 543.281 187.952C549.506 185.981 554.35 180.926 556.027 174.584C556.448 173.018 556.664 171.376 556.664 169.684C556.664 159.118 548.07 150.528 537.503 150.528Z" fill="#51A5F2"/>
<path d="M543.432 186.848C543.432 187.227 543.377 187.602 543.285 187.95C542.797 189.708 541.197 190.992 539.286 190.992C536.996 190.992 535.134 189.136 535.134 186.848C535.134 184.554 536.996 182.697 539.286 182.697C540.623 182.697 541.808 183.332 542.571 184.31C543.115 185.012 543.432 185.891 543.432 186.848Z" fill="#69CEFA"/>
<path d="M606.203 150.527C595.636 150.527 587.045 159.117 587.045 169.682H590.719C590.719 161.146 597.671 154.203 606.203 154.203C614.741 154.203 621.687 161.146 621.687 169.682C621.687 171.397 621.403 173.044 620.887 174.583C619.367 179.132 615.786 182.745 611.265 184.31C609.944 184.773 608.536 185.059 607.082 185.142V188.819C608.78 188.746 610.419 188.45 611.972 187.95C618.198 185.984 623.055 180.925 624.727 174.583C625.143 173.017 625.361 171.375 625.361 169.682C625.361 159.117 616.77 150.527 606.203 150.527Z" fill="#51A5F2"/>
<path d="M612.12 186.851C612.12 187.23 612.068 187.605 611.97 187.953C611.487 189.711 609.882 190.996 607.969 190.996C605.684 190.996 603.818 189.139 603.818 186.851C603.818 184.557 605.684 182.701 607.969 182.701C609.314 182.701 610.495 183.335 611.259 184.313C611.801 185.015 612.12 185.894 612.12 186.851Z" fill="#69CEFA"/>
<path d="M674.893 150.529C664.327 150.529 655.729 159.119 655.729 169.685H659.406C659.406 161.149 666.352 154.206 674.893 154.206C683.428 154.206 690.373 161.149 690.373 169.685C690.373 171.4 690.092 173.047 689.579 174.586C688.06 179.136 684.482 182.748 679.955 184.313C678.633 184.776 677.234 185.062 675.772 185.145V188.822C677.473 188.748 679.111 188.452 680.672 187.953C686.886 185.987 691.737 180.927 693.417 174.586C693.832 173.02 694.05 171.377 694.05 169.685C694.05 159.119 685.452 150.529 674.893 150.529Z" fill="#51A5F2"/>
<path d="M680.817 186.849C680.817 187.229 680.769 187.603 680.671 187.951C680.185 189.709 678.573 190.994 676.669 190.994C674.376 190.994 672.52 189.138 672.52 186.849C672.52 184.556 674.376 182.699 676.669 182.699C678.003 182.699 679.198 183.334 679.955 184.311C680.497 185.013 680.817 185.893 680.817 186.849Z" fill="#69CEFA"/>
<path d="M743.589 150.528C733.023 150.528 724.432 159.118 724.432 169.684H728.113C728.113 161.148 735.058 154.205 743.589 154.205C752.121 154.205 759.073 161.148 759.073 169.684C759.073 171.399 758.798 173.045 758.276 174.584C756.756 179.134 753.179 182.746 748.656 184.311C747.33 184.775 745.929 185.06 744.469 185.144V188.82C746.175 188.748 747.814 188.451 749.364 187.952C755.579 185.986 760.437 180.926 762.114 174.584C762.531 173.019 762.747 171.376 762.747 169.684C762.747 159.118 754.156 150.528 743.589 150.528Z" fill="#51A5F2"/>
<path d="M749.514 186.85C749.514 187.23 749.455 187.605 749.367 187.953C748.88 189.71 747.274 190.995 745.365 190.995C743.073 190.995 741.215 189.139 741.215 186.85C741.215 184.557 743.073 182.701 745.365 182.701C746.699 182.701 747.885 183.335 748.652 184.312C749.19 185.015 749.514 185.893 749.514 186.85Z" fill="#69CEFA"/>
<path d="M576.659 359.587H554.318C551.733 359.587 549.211 357.476 548.717 354.891L544.402 332.55C543.902 329.97 545.613 327.853 548.198 327.853H570.539C573.117 327.853 575.639 329.97 576.14 332.55L580.442 354.891C580.942 357.476 579.238 359.587 576.659 359.587Z" fill="#69CEFA"/>
<path d="M633.039 359.585H610.695C608.109 359.585 605.596 357.474 605.095 354.889L600.785 332.548C600.284 329.968 601.988 327.852 604.574 327.852H626.919C629.498 327.852 632.017 329.968 632.518 332.548L636.821 354.889C637.322 357.474 635.618 359.585 633.039 359.585Z" fill="#80E2D1"/>
<path d="M689.407 359.586H667.066C664.479 359.586 661.963 357.475 661.464 354.89L657.156 332.549C656.657 329.969 658.358 327.852 660.944 327.852H683.286C685.872 327.852 688.388 329.969 688.887 332.549L693.202 354.89C693.694 357.475 691.986 359.586 689.407 359.586Z" fill="#36C1B9"/>
<path d="M407.527 359.588H385.189C382.609 359.588 380.087 357.476 379.589 354.891L375.281 332.55C374.783 329.971 376.489 327.854 379.064 327.854H401.408C403.993 327.854 406.51 329.971 407.008 332.55L411.321 354.891C411.819 357.476 410.113 359.588 407.527 359.588Z" fill="#80E2D1"/>
<path d="M383.048 292.514H373.448C372.335 292.514 371.253 291.604 371.04 290.497L369.189 280.896C368.976 279.783 369.709 278.879 370.817 278.879H380.417C381.53 278.879 382.612 279.783 382.825 280.896L384.676 290.497C384.889 291.604 384.156 292.514 383.048 292.514Z" fill="#53AFF2"/>
<path d="M463.91 359.585H441.569C438.99 359.585 436.467 357.474 435.964 354.889L431.658 332.547C431.161 329.968 432.866 327.851 435.445 327.851H457.785C460.371 327.851 462.894 329.968 463.39 332.547L467.703 354.889C468.199 357.474 466.495 359.585 463.91 359.585Z" fill="#80E2D1"/>
<path d="M520.282 359.586H497.944C495.356 359.586 492.834 357.475 492.343 354.89L488.03 332.549C487.533 329.969 489.24 327.852 491.822 327.852H514.16C516.741 327.852 519.263 329.969 519.761 332.549L524.073 354.89C524.571 357.475 522.863 359.586 520.282 359.586Z" fill="#80E2D1"/>
<path d="M745.782 359.586H723.44C720.859 359.586 718.337 357.475 717.843 354.89L713.537 332.548C713.036 329.969 714.739 327.852 717.32 327.852H739.662C742.25 327.852 744.765 329.969 745.266 332.548L749.572 354.89C750.074 357.475 748.37 359.586 745.782 359.586Z" fill="#36C1B9"/>
<path d="M567.296 311.065H544.956C542.369 311.065 539.858 308.953 539.356 306.369L535.042 284.027C534.546 281.448 536.254 279.331 538.834 279.331H561.18C563.754 279.331 566.278 281.448 566.781 284.027L571.088 306.369C571.584 308.953 569.882 311.065 567.296 311.065Z" fill="#80E2D1"/>
<path d="M623.669 311.066H601.331C598.741 311.066 596.224 308.955 595.727 306.37L591.415 284.029C590.924 281.449 592.627 279.333 595.211 279.333H617.548C620.132 279.333 622.649 281.449 623.153 284.029L627.458 306.37C627.955 308.955 626.253 311.066 623.669 311.066Z" fill="#80E2D1"/>
<path d="M680.042 311.066H657.701C655.122 311.066 652.599 308.954 652.104 306.369L647.797 284.028C647.295 281.449 649.002 279.332 651.581 279.332H673.921C676.507 279.332 679.024 281.449 679.526 284.028L683.833 306.369C684.335 308.954 682.628 311.066 680.042 311.066Z" fill="#36C1B9"/>
<path d="M736.428 311.063H714.084C711.502 311.063 708.985 308.952 708.48 306.368L704.178 284.026C703.673 281.446 705.385 279.33 707.96 279.33H730.304C732.887 279.33 735.411 281.446 735.901 284.026L740.218 306.368C740.715 308.952 739.011 311.063 736.428 311.063Z" fill="#36C1B9"/>
<path d="M586.576 411.014H564.238C561.66 411.014 559.133 408.903 558.634 406.318L554.329 383.976C553.83 381.397 555.538 379.28 558.116 379.28H580.455C583.039 379.28 585.559 381.397 586.058 383.976L590.37 406.318C590.869 408.903 589.161 411.014 586.576 411.014Z" fill="#80E2D1"/>
<path d="M642.952 411.015H620.606C618.03 411.015 615.509 408.904 615.01 406.319L610.701 383.977C610.202 381.398 611.908 379.281 614.49 379.281H636.829C639.412 379.281 641.934 381.398 642.433 383.977L646.741 406.319C647.24 408.904 645.534 411.015 642.952 411.015Z" fill="#80E2D1"/>
<path d="M699.332 411.013H676.995C674.408 411.013 671.884 408.902 671.395 406.317L667.078 383.976C666.582 381.396 668.29 379.279 670.871 379.279H693.214C695.794 379.279 698.318 381.396 698.814 383.976L703.124 406.317C703.62 408.902 701.912 411.013 699.332 411.013Z" fill="#36C1B9"/>
<path d="M417.45 411.015H395.112C392.523 411.015 390.005 408.904 389.511 406.319L385.197 383.978C384.699 381.399 386.403 379.282 388.992 379.282H411.329C413.912 379.282 416.431 381.399 416.93 383.978L421.239 406.319C421.737 408.904 420.033 411.015 417.45 411.015Z" fill="#80E2D1"/>
<path d="M473.833 411.014H451.491C448.906 411.014 446.39 408.902 445.888 406.318L441.575 383.976C441.079 381.396 442.785 379.28 445.369 379.28H467.711C470.29 379.28 472.811 381.396 473.313 383.976L477.621 406.318C478.117 408.902 476.411 411.014 473.833 411.014Z" fill="#80E2D1"/>
<path d="M530.207 411.013H507.866C505.288 411.013 502.765 408.902 502.263 406.318L497.954 383.976C497.458 381.396 499.165 379.279 501.743 379.279H524.083C526.673 379.279 529.184 381.396 529.687 383.976L533.995 406.318C534.497 408.902 532.791 411.013 530.207 411.013Z" fill="#80E2D1"/>
<path d="M755.709 411.014H733.361C730.781 411.014 728.261 408.903 727.763 406.318L723.451 383.976C722.953 381.397 724.655 379.28 727.243 379.28H749.583C752.163 379.28 754.683 381.397 755.189 383.976L759.493 406.318C759.992 408.903 758.289 411.014 755.709 411.014Z" fill="#36C1B9"/>
<path d="M596.499 462.443H574.161C571.578 462.443 569.06 460.331 568.556 457.747L564.248 435.405C563.751 432.825 565.456 430.709 568.039 430.709H590.383C592.96 430.709 595.485 432.825 595.982 435.405L600.289 457.747C600.787 460.331 599.082 462.443 596.499 462.443Z" fill="#80E2D1"/>
<path d="M652.872 462.443H630.529C627.944 462.443 625.433 460.331 624.93 457.747L620.616 435.406C620.126 432.826 621.827 430.709 624.412 430.709H646.749C649.334 430.709 651.852 432.826 652.355 435.406L656.662 457.747C657.158 460.331 655.451 462.443 652.872 462.443Z" fill="#80E2D1"/>
<path d="M709.249 462.443H686.906C684.325 462.443 681.802 460.332 681.308 457.747L676.997 435.406C676.497 432.826 678.205 430.709 680.786 430.709H703.129C705.71 430.709 708.226 432.826 708.727 435.406L713.038 457.747C713.538 460.332 711.83 462.443 709.249 462.443Z" fill="#36C1B9"/>
<path d="M427.371 462.443H405.034C402.454 462.443 399.928 460.331 399.43 457.746L395.126 435.405C394.627 432.825 396.329 430.709 398.909 430.709H421.251C423.837 430.709 426.357 432.825 426.851 435.405L431.165 457.746C431.664 460.331 429.956 462.443 427.371 462.443Z" fill="#80E2D1"/>
<path d="M483.745 462.443H461.407C458.824 462.443 456.299 460.332 455.803 457.747L451.496 435.406C451 432.826 452.701 430.709 455.29 430.709H477.622C480.211 430.709 482.73 432.826 483.226 435.406L487.534 457.747C488.035 460.332 486.328 462.443 483.745 462.443Z" fill="#69CFFA"/>
<path d="M540.131 462.442H517.785C515.206 462.442 512.682 460.33 512.187 457.746L507.878 435.404C507.377 432.825 509.082 430.708 511.667 430.708H534.007C536.586 430.708 539.11 432.825 539.611 435.404L543.914 457.746C544.415 460.33 542.71 462.442 540.131 462.442Z" fill="#80E2D1"/>
<path d="M765.622 462.443H743.279C740.7 462.443 738.174 460.332 737.68 457.748L733.37 435.406C732.875 432.826 734.577 430.71 737.155 430.71H759.499C762.085 430.71 764.603 432.826 765.098 435.406L769.408 457.748C769.91 460.332 768.201 462.443 765.622 462.443Z" fill="#36C1B9"/>
<path d="M605.852 510.969H583.518C580.931 510.969 578.41 508.853 577.915 506.273L573.608 483.932C573.106 481.347 574.813 479.236 577.4 479.236H599.741C602.321 479.236 604.842 481.347 605.337 483.932L609.644 506.273C610.145 508.853 608.438 510.969 605.852 510.969Z" fill="#80E2D1"/>
<path d="M662.229 510.97H639.889C637.302 510.97 634.791 508.854 634.29 506.274L629.975 483.932C629.481 481.348 631.182 479.236 633.769 479.236H656.108C658.688 479.236 661.213 481.348 661.714 483.932L666.016 506.274C666.517 508.854 664.808 510.97 662.229 510.97Z" fill="#80E2D1"/>
<path d="M718.609 510.969H696.267C693.687 510.969 691.172 508.852 690.668 506.273L686.358 483.931C685.861 481.346 687.561 479.235 690.149 479.235H712.49C715.07 479.235 717.593 481.346 718.09 483.931L722.4 506.273C722.897 508.852 721.189 510.969 718.609 510.969Z" fill="#36C1B9"/>
<path d="M436.733 510.97H414.39C411.81 510.97 409.29 508.853 408.792 506.274L404.475 483.932C403.982 481.347 405.691 479.236 408.271 479.236H430.609C433.195 479.236 435.714 481.347 436.213 483.932L440.524 506.274C441.022 508.853 439.319 510.97 436.733 510.97Z" fill="#80E2D1"/>
<path d="M493.11 510.968H470.771C468.191 510.968 465.67 508.852 465.169 506.273L460.865 483.931C460.364 481.346 462.071 479.235 464.651 479.235H486.99C489.575 479.235 492.091 481.346 492.592 483.931L496.901 506.273C497.402 508.852 495.696 510.968 493.11 510.968Z" fill="#80E2D1"/>
<path d="M549.486 510.969H527.147C524.562 510.969 522.039 508.852 521.539 506.273L517.233 483.932C516.733 481.347 518.442 479.235 521.021 479.235H543.36C545.945 479.235 548.468 481.347 548.962 483.932L553.274 506.273C553.774 508.852 552.065 510.969 549.486 510.969Z" fill="#80E2D1"/>
<path d="M450.761 283.699H391.573C390.708 283.699 389.987 282.986 389.987 282.112C389.987 281.239 390.708 280.526 391.573 280.526H450.761C451.637 280.526 452.347 281.239 452.347 282.112C452.347 282.986 451.637 283.699 450.761 283.699Z" fill="#80E2D1"/>
<path d="M452.56 290.866H393.377C392.505 290.866 391.788 290.154 391.788 289.28C391.788 288.406 392.505 287.694 393.377 287.694H452.56C453.433 287.694 454.145 288.406 454.145 289.28C454.145 290.154 453.433 290.866 452.56 290.866Z" fill="#80E2D1"/>
<path d="M387.282 230.321H366.973C365.309 230.321 363.947 228.958 363.947 227.299C363.947 225.635 365.309 224.273 366.973 224.273H387.282C388.946 224.273 390.308 225.635 390.308 227.299C390.308 228.958 388.946 230.321 387.282 230.321Z" fill="white"/>
<path d="M443.016 230.32H422.707C421.043 230.32 419.677 228.957 419.677 227.298C419.677 225.634 421.043 224.271 422.707 224.271H443.016C444.68 224.271 446.041 225.634 446.041 227.298C446.041 228.957 444.68 230.32 443.016 230.32Z" fill="white"/>
<path d="M498.749 230.321H478.431C476.769 230.321 475.412 228.958 475.412 227.299C475.412 225.635 476.769 224.272 478.431 224.272H498.749C500.411 224.272 501.768 225.635 501.768 227.299C501.768 228.958 500.411 230.321 498.749 230.321Z" fill="white"/>
<path d="M554.475 230.32H534.171C532.505 230.32 531.143 228.957 531.143 227.298C531.143 225.634 532.505 224.271 534.171 224.271H554.475C556.141 224.271 557.504 225.634 557.504 227.298C557.504 228.957 556.141 230.32 554.475 230.32Z" fill="white"/>
<path d="M610.206 230.321H589.897C588.231 230.321 586.872 228.958 586.872 227.299C586.872 225.635 588.231 224.272 589.897 224.272H610.206C611.865 224.272 613.231 225.635 613.231 227.299C613.231 228.958 611.865 230.321 610.206 230.321Z" fill="white"/>
<path d="M665.94 230.321H645.621C643.957 230.321 642.602 228.959 642.602 227.3C642.602 225.636 643.957 224.273 645.621 224.273H665.94C667.604 224.273 668.958 225.636 668.958 227.3C668.958 228.959 667.604 230.321 665.94 230.321Z" fill="white"/>
<path d="M721.669 230.321H701.358C699.698 230.321 698.334 228.958 698.334 227.3C698.334 225.635 699.698 224.273 701.358 224.273H721.669C723.33 224.273 724.694 225.635 724.694 227.3C724.694 228.958 723.33 230.321 721.669 230.321Z" fill="white"/>
<path d="M593.217 311.506C588.729 311.506 585.46 310.081 583.685 307.319C580.275 302.02 582.901 294.593 591.516 285.242C597.806 278.414 605.148 273.006 605.222 272.953C605.503 272.74 605.912 272.803 606.126 273.094C606.34 273.38 606.273 273.786 605.985 273.999C605.697 274.207 577.395 295.165 584.777 306.612C587.108 310.242 592.112 310.481 595.904 310.044C602.917 309.233 612.061 305.457 620.361 299.94C628.955 294.234 635.011 287.801 636.967 282.294C638.253 278.68 637.858 276.121 635.782 274.686C633.109 272.834 627.515 272.834 620.823 274.68C614.412 276.454 607.968 279.642 603.989 283.006C603.714 283.235 603.306 283.204 603.078 282.929C602.844 282.658 602.877 282.247 603.152 282.018C607.265 278.539 613.897 275.252 620.481 273.432C627.642 271.451 633.49 271.519 636.525 273.619C638.32 274.862 640.069 277.452 638.193 282.726C636.137 288.493 629.9 295.165 621.084 301.021C612.617 306.643 603.259 310.497 596.051 311.329C595.06 311.449 594.108 311.506 593.217 311.506Z" fill="#ED6966"/>
<path d="M710.487 274.676L708.176 270.329C708.176 270.329 709.324 262.575 699.612 257.671C699.612 257.671 696.061 256.225 694.057 259.121C692.21 261.79 697.573 261.305 697.287 265.867C697.002 270.433 699.163 273.106 702.179 274.593L704.668 277.48L710.487 274.676Z" fill="#FC9290"/>
<path d="M802.275 264.274C802.275 264.274 793.934 305.213 748.032 318.589C733.706 322.765 701.153 275.595 701.153 275.595C701.153 275.595 702.308 271.243 709.471 272.242C709.471 272.242 741.162 293.225 745.155 295.504C748.694 297.526 771.976 269.506 782.594 264.986C793.204 260.468 802.275 264.274 802.275 264.274Z" fill="#08174B"/>
<path d="M718.022 254.29L719.862 264.224L669.903 273.475L668.056 263.542L718.022 254.29Z" fill="#ED6966"/>
<path d="M657.367 270.662L669.899 273.476L668.055 263.543L657.367 270.662Z" fill="#FC9290"/>
<path d="M724.442 256.511L725.019 259.652C725.381 261.582 724.102 263.438 722.174 263.797L719.863 264.223L718.021 254.291L720.534 253.828C722.354 253.489 724.102 254.691 724.442 256.511Z" fill="#FC9290"/>
<path d="M857.063 521.615C857.063 521.615 862.757 526.816 861.652 530.508C860.539 534.2 855.402 536.66 854.7 541.174C854.007 545.683 851.232 548.149 848.732 548.149C846.232 548.149 836.812 548.149 836.812 548.149C836.812 548.149 834.973 544.971 839.417 544.014C843.861 543.057 845.538 537.752 845.256 532.832C844.982 527.908 845.676 521.345 845.676 521.345L855.12 519.155L857.063 521.615Z" fill="#060632"/>
<path d="M787.21 535.058C787.21 535.058 788.237 546.884 785.734 548.112L753.743 548.049C753.743 548.049 753.743 544.356 758.878 543.535C764.021 542.713 773.044 539.707 774.573 533.004C776.102 526.305 787.21 535.058 787.21 535.058Z" fill="#060632"/>
<path d="M760.198 368.007C760.198 368.007 761.882 388.736 763.867 413.657C766.563 447.502 769.808 489.081 770.132 496.96C770.681 510.637 772.906 532.51 772.906 532.51C772.906 532.51 778.182 537.711 788.734 535.521C788.734 535.521 798.143 504.287 800.832 471.242C800.878 470.702 800.917 470.156 800.955 469.61C803.458 435.972 807.344 365.136 807.344 365.136L760.198 368.007Z" fill="#53AFF2"/>
<path d="M760.198 368.007C760.198 368.007 761.882 388.736 763.867 413.657L800.832 471.242C800.878 470.702 800.917 470.156 800.955 469.61C803.458 435.972 807.344 365.136 807.344 365.136L760.198 368.007Z" fill="#53AFF2"/>
<path d="M767.903 370.472C767.903 370.472 798.313 445.541 818.316 480.822C838.311 516.103 844.566 525.947 844.566 525.947C844.566 525.947 856.017 521.438 857.061 518.359C857.061 518.359 849.416 450.248 836.022 433.648C828.45 424.266 819.569 396.11 819.151 386.265C818.734 376.421 816.437 356.935 816.437 356.935L767.903 370.472Z" fill="#53AFF2"/>
<path d="M807.92 254.775C807.92 254.775 787.339 264.708 775.476 261.021C775.476 261.021 778.397 257.339 783.506 254.598C783.096 252.216 782.779 250.152 782.594 248.399C782.091 244.353 782.091 242.065 782.091 242.065L790.036 235.82L797.564 229.844C796.969 246.647 807.92 254.775 807.92 254.775Z" fill="#FC9290"/>
<path d="M758.906 369.722C759.264 370.034 759.677 370.211 760.137 370.211C764.604 370.123 777.607 372.593 788.606 371.47C797.914 370.569 806.122 367.876 814.931 364.017C816.116 363.476 818.813 362.036 818.766 360.782C818.72 359.342 818.587 357.319 818.4 354.714C818.034 349.58 817.511 342.289 817.355 333.651C817.231 327.244 817.293 320.094 817.761 312.527C817.792 312.017 817.815 311.502 817.839 310.987C817.971 308.215 818.034 305.417 818.034 302.687C818.08 293.877 817.449 285.478 816.163 277.979C813.933 264.947 809.731 254.748 803.526 250.208C802.7 249.579 797.594 252.049 792.854 254.343C788.512 256.454 784.186 256.677 780.078 255.871L775.97 259.465C770.988 264 765.516 270.246 763.099 279.68C761.088 287.684 759.903 302.146 759.264 317.155C758.952 323.983 758.718 330.811 758.625 337.323V337.547C758.578 338.223 758.578 338.898 758.578 339.574C758.36 356.242 758.578 369.494 758.906 369.722Z" fill="#09255A"/>
<path d="M797.705 236.265C797.705 236.265 792.5 245.746 782.596 248.397C782.098 244.351 782.098 242.063 782.098 242.063L790.039 235.818L797.705 236.265Z" fill="#EA8888"/>
<path d="M778.48 241.787C778.48 241.787 798.112 244.996 799.956 232.93C801.8 220.86 805.572 213.147 793.114 210.588C780.663 208.024 777.516 212.269 775.911 216.153C774.299 220.033 773.419 240.643 778.48 241.787Z" fill="#FC9290"/>
<path d="M807.08 209.145C807.258 208.943 807.668 208.776 808.588 208.725C808.588 208.725 807.853 208.267 806.879 208.246C806.686 206.972 806.013 204.72 803.824 204.174C803.824 204.174 805 204.803 805.146 206.155C802.617 203.55 797.18 201.652 782.137 202.843C762.315 204.408 768.842 217.102 771.41 218.616C773.978 220.129 780.444 215.979 785.223 216.358C790.003 216.738 790.916 223.65 792.54 224.597C794.156 225.548 793.522 223.868 795.711 222.875C797.907 221.882 798.116 225.522 797.49 227.888C796.855 230.25 799.872 233.37 799.872 233.37C799.872 233.37 799.872 233.37 802.919 230.088C805.966 226.806 808.836 212.9 807.451 209.936C807.327 209.676 807.211 209.411 807.08 209.145Z" fill="#0B0B36"/>
<path d="M708.132 270.122C708.132 270.122 708.808 267.454 706.957 266.253C705.105 265.057 703.404 261.796 702.627 262.233C701.004 263.148 703.51 265.998 703.047 269.545C702.891 270.788 705.789 274.043 708.132 270.122Z" fill="#FC9290"/>
<path d="M817.355 333.65C817.231 327.243 817.301 320.093 817.768 312.526C817.792 312.016 817.815 311.501 817.838 310.986C815.969 301.745 813.149 293.539 808.997 293.273C808.997 293.273 796.612 312.723 817.355 333.65Z" fill="#060632"/>
<path d="M833.724 367.194C833.724 367.194 832.691 377.227 831.563 379.125C830.427 381.018 825.609 387.081 823.558 388.272C821.499 389.463 824.812 380.284 824.386 378.496C823.976 376.712 822.698 381.756 821.791 381.876C820.892 381.995 821.121 377.455 821.089 375.801C821.058 374.147 825.49 370.071 827.06 366.549C828.621 363.029 833.724 367.194 833.724 367.194Z" fill="#FC9290"/>
<path d="M803.516 250.11C803.516 250.11 815.933 255.992 821.887 265.036C831.128 279.061 841.838 330.178 842.036 334.91C842.235 339.643 834.224 373.061 834.224 373.061C834.224 373.061 826.095 372.525 823.999 368.423C823.999 368.423 825.618 334.088 824.586 331.878C823.562 329.673 790.71 285.822 794.402 276.467C798.102 267.106 803.516 250.11 803.516 250.11Z" fill="#09255A"/>
<path d="M663.791 266.386L664.448 272.247L657.367 270.661L663.791 266.386Z" fill="#ED6966"/>
<path d="M932.568 547.955H896.777C894.85 546.328 898.099 542.635 901.492 542.385C902.958 542.276 904.826 542.583 906.948 543.031C907.443 536.488 910.256 507.079 920.862 508.259C932.781 509.581 920.862 521.214 917.495 528.099C914.997 533.196 912.362 540.508 911.16 543.962C912.124 544.17 913.13 544.378 914.153 544.564C915.73 539.712 921.613 523.398 929.081 524.345C937.863 525.457 934.333 532 928.109 535.885C923.548 538.74 917.947 542.801 915.278 544.762C917.537 545.131 919.899 545.381 922.278 545.324C928.416 545.178 931.4 546.983 932.568 547.955Z" fill="#2AD26D"/>
<path d="M115.453 546.255C113.555 543.275 107.845 535.542 100.242 536.566C91.9572 537.679 109.395 543.145 114.73 546.276C113.545 546.297 112.525 546.198 111.777 545.933C108.209 544.664 102.098 547.103 100.143 547.956H134.118C133.879 547.144 133.27 545.818 131.69 544.851C131.128 544.508 130.01 544.461 128.559 544.57C130.582 542.188 131.981 534.585 126.359 536.54C122.25 537.971 122.261 542.62 122.667 545.366C121.793 545.506 120.904 545.641 120.03 545.771C118.34 537.149 112.354 511.885 100.231 511.209C87.9371 510.527 110.653 537.414 118.22 546.011C117.248 546.125 116.317 546.214 115.453 546.255Z" fill="#2AD26D"/>
</svg>
