<?xml version="1.0" encoding="utf-8"?>
<!-- Generator: Adobe Illustrator 24.1.1, SVG Export Plug-In . SVG Version: 6.00 Build 0)  -->
<svg version="1.1" id="Layer_1" xmlns="http://www.w3.org/2000/svg" xmlns:xlink="http://www.w3.org/1999/xlink" x="0px" y="0px"
	 viewBox="0 0 995 551" style="enable-background:new 0 0 995 551;" xml:space="preserve">
<style type="text/css">
	.st0{display:none;fill:#1E1E1E;}
	.st1{fill:#FFE1D8;}
	.st2{fill:#FFC4B1;}
	.st3{fill:#FF9E80;}
	.st4{fill:#FF482A;}
	.st5{fill:#3A49CD;}
	.st6{fill:#FFB097;}
	.st7{fill:#FF8874;}
	.st8{fill:#1C3EB7;}
	.st9{fill:#FFA88D;}
	.st10{fill:#FF806B;}
	.st11{fill:#93B3F4;}
	.st12{fill:#FFB7A1;}
	.st13{fill:#FF7A64;}
	.st14{fill:#FFFFFF;}
	.st15{fill:#1F46CE;}
	.st16{fill:#2751E7;}
	.st17{fill:#2E5BF9;}
	.st18{fill:#3763FF;}
	.st19{fill:#FFAEA0;}
	.st20{fill:#F3F4F4;}
	.st21{fill:#FFE0DB;}
	.st22{fill:#7392FF;}
	.st23{fill:#A0B5FF;}
	.st24{fill:#2051FD;}
	.st25{fill:#6F8FFF;}
	.st26{fill:#ED6966;}
	.st27{fill:#FC9290;}
	.st28{fill:#2C6EEE;}
	.st29{fill:#060632;}
	.st30{fill:#0E347C;}
	.st31{fill:#07296B;}
	.st32{fill:#3E80FF;}
	.st33{fill:#EA8888;}
	.st34{fill:#0B0B36;}
	.st35{fill:#1C5BD6;}
	.st36{fill:#FF826E;}
</style>
<rect class="st0" width="995" height="551"/>
<path class="st1" d="M61.8,550.3c0,0-122.1-131.1-20.7-273.1c90-125.9,195-117.3,272-66.2C346,232.8,440.6,213.7,521,85.5
	c109.8-174.8,490.2-68.8,420.9,200.1c-33.6,130.1,102.2,134.9,33,264.9L61.8,550.3z"/>
<path class="st2" d="M296.4,296.8c0,0-60.4-86-84-74.8C188.7,233.1,296.4,296.8,296.4,296.8z"/>
<path class="st2" d="M292.5,273.7c0,0-9.2-64.7-23.8-62.1C254.2,214.1,292.5,273.7,292.5,273.7z"/>
<path class="st3" d="M241.4,475.3c0,0,5.8-28.8-16.7-32.4c0,0-15.3-0.5-24.3,5.2c0,0,25.6,14.8,22.5,19.4
	c-3,4.6-27.3-18.5-27.3-18.5s-27.4,12-33.5,20.7c0,0,32.4,5.8,28.3,9.5c-4.1,3.7-38.1-0.7-38.1-0.7S130.4,496,140,510.1
	c9.5,14,20.4,13.9,23.9,11.5c3.4-2.4,20.3-22.6,22.5-19.9c2.1,2.7-5.3,19.8-14.1,25.3c0,0,27.6,9.3,35.9-2.5
	c8.3-11.8,4.5-20.9,9.7-28.1c5.3-7.2,11.3-10.5,10.2-5.6c-1.1,4.9-12.1,15.3-12.1,24.7c-0.1,9.4-1,16.3,9.8,7.9
	c10.8-8.3,25-27.6,20.4-37.9C241.4,475.3,241.4,475.3,241.4,475.3z"/>
<path class="st4" d="M152.1,503.8c0,0,64.3-39.3,89.4-28.6c0,0,8.6,7.8,23.4,11.1l3.9,3.3c0,0-18.1-5.6-22.6-4.1
	C246.1,485.6,239.5,458.7,152.1,503.8z"/>
<path class="st5" d="M264.8,486.3c0,0,19.9,2.6,31.3,20.7l-2.4,1.7c0,0-15.3-16.8-27.6-19.8C253.7,485.9,264.8,486.3,264.8,486.3z"
	/>
<path class="st6" d="M261.1,391.3c0,0,46.7-26.2,24.9-61.7c0,0-17.4-21.8-36.1-27.4c0,0,10,52.9,0,54.2c-10,1.2-6.8-59.8-6.8-59.8
	s-49.2-23.7-68.5-21.8c0,0,30.5,51.7,20.6,50.5c-10-1.2-44.2-53.6-44.2-53.6s-50.5-9.3-58.6,20.6c-8.1,29.9,5,44.8,12.5,46.7
	c7.5,1.9,55.4,1.2,54.2,7.5c-1.2,6.2-33.6,16.2-51.7,10.6c0,0,19.9,49.2,46.1,46.7c26.2-2.5,34.3-18.7,50.5-19.9
	c16.2-1.2,28,3.1,19.9,7.5c-8.1,4.4-35.5,1.4-48.6,12.5c-13.1,11.1-23.7,18,0.6,22.9c24.3,5,67.9,1.9,76.6-16.8
	C261.1,391.3,261.1,391.3,261.1,391.3z"/>
<path class="st7" d="M115.4,301.6c0,0,130.8,42.4,145.8,89.7c0,0-0.6,21.2,12.5,45.5v9.3c0,0-13.7-31.8-21.2-36.1
	C252.4,410,281.7,368.9,115.4,301.6z"/>
<path class="st5" d="M273.6,436.8c0,0,20.2,30.6,8.7,67.9l-5.2-1.4c0,0,5-41.1-5.5-61.7C261,420.9,273.6,436.8,273.6,436.8z"/>
<path class="st8" d="M308.6,172.4l-69.9,361.4c-1.4,7.3,4.2,14.2,11.7,14.2h36.9L308.6,172.4z"/>
<path class="st9" d="M773.2,275.9c0,0-31.4-20.1-14.9-43.9c0,0,13-14.5,26.2-17.6c0,0-9,36.4-2.2,37.7c6.9,1.3,7.2-41.3,7.2-41.3
	s35.2-14.5,48.5-12.4c0,0-23.3,34.7-16.3,34.3c7-0.5,32.9-35.5,32.9-35.5s35.5-4.5,39.9,16.6c4.4,21.1-5.3,31-10.5,32
	c-5.3,1-38.6-1.3-38,3c0.6,4.4,22.7,12.6,35.5,9.4c0,0-15.8,33.4-33.9,30.6s-23.1-14.4-34.3-15.9c-11.2-1.5-19.6,1-14.2,4.4
	s24.6,2.4,33.3,10.7c8.7,8.3,15.7,13.4-1.4,15.9c-17.1,2.5-47.3-1.4-52.6-14.8C773.2,275.9,773.2,275.9,773.2,275.9z"/>
<path class="st10" d="M878.2,219.3c0,0-92.7,24.2-104.9,56.6c0,0-0.4,14.8-10.5,31.1l-0.4,6.5c0,0,10.8-21.5,16.2-24.3
	C778.6,289.2,759.8,259.5,878.2,219.3z"/>
<path class="st11" d="M762.8,307c0,0-15.3,20.5-8.7,46.9l3.7-0.8c0,0-1.9-28.8,6.3-42.7C772.1,296.5,762.8,307,762.8,307z"/>
<path class="st12" d="M688.6,188.8c0,0-48.3-10.6-38.6-47.8c0,0,9.6-23.9,24.6-33.9c0,0,5.4,49.5,14.5,47.9c9.1-1.6-10-54.7-10-54.7
	s37.2-34.1,54.7-37.6c0,0-13.1,53.9-4.7,50.1c8.5-3.8,24.7-59.2,24.7-59.2s42.1-21.8,57.3,2.5c15.2,24.3,7.6,41,1.5,44.6
	c-6.1,3.7-48.7,16-45.9,21.1c2.8,5.2,34.1,5.3,48.5-4.5c0,0-4.4,48.8-28.2,53.6c-23.8,4.8-35.3-7.3-49.9-4.1
	c-14.6,3.2-23.9,10.3-15.6,11.9c8.3,1.7,31.8-8.3,46.3-1.9c14.5,6.3,25.7,9.5,5.6,20.5c-20.1,10.9-59.5,19.8-72.2,5.7
	C688.6,188.8,688.6,188.8,688.6,188.8z"/>
<path class="st13" d="M793.4,70.5c0,0-104.3,72.5-104.8,118.3c0,0,6.2,18.6,1.2,43.5l2.5,8.3c0,0,3.6-31.8,9-37.6
	C701.3,203,664.4,174.5,793.4,70.5z"/>
<path class="st14" d="M689.8,232.4c0,0-9.6,32.5,10.5,62.4l4.2-2.6c0,0-15.5-35-11.7-56C696.6,215,689.8,232.4,689.8,232.4z"/>
<path class="st15" d="M309.5,171l-46.3,354.8c-1.5,11.8,7.6,22.2,19.5,22.2h68l-38.3-378.3L309.5,171z"/>
<path class="st16" d="M309.5,171l-20.7,352.5c-0.8,13.3,9.8,24.5,23.1,24.5h101.4L309.5,171z"/>
<path class="st17" d="M308.7,173.8l10.1,349.7c-0.8,13.3,9.8,24.5,23.1,24.5h101.4L308.7,173.8z"/>
<path class="st14" d="M794,548H394.3c-10,0-18.5-7.1-20.3-16.9l-60.8-332.6c-2.8-15.1,8.8-29,24.2-29h395c10,0,18.5,7.1,20.3,16.9
	l61.7,337.2C816.6,536.3,806.9,548,794,548z"/>
<path class="st18" d="M321.1,241.6H763l-11.3-62.8c-1-5.4-5.7-9.4-11.3-9.4H312.4c-2.3,0-4.1,2.1-3.7,4.4L321.1,241.6z"/>
<path class="st19" d="M331.4,150.5c-10.6,0-19.2,8.6-19.2,19.2h3.7c0-8.5,6.9-15.5,15.5-15.5c8.5,0,15.5,6.9,15.5,15.5
	c0,1.7-0.3,3.4-0.8,4.9c-1.5,4.5-5.1,8.2-9.6,9.7c-1.3,0.5-2.7,0.7-4.2,0.8v3.7c1.7-0.1,3.3-0.4,4.9-0.9c6.2-2,11.1-7,12.7-13.4
	c0.4-1.6,0.6-3.2,0.6-4.9C350.6,159.1,342,150.5,331.4,150.5z"/>
<path class="st20" d="M337.3,186.8c0,0.4-0.1,0.8-0.1,1.1c-0.5,1.8-2.1,3-4,3c-2.3,0-4.1-1.9-4.1-4.1c0-2.3,1.9-4.1,4.1-4.1
	c1.3,0,2.5,0.6,3.3,1.6C337,185,337.3,185.9,337.3,186.8z"/>
<path class="st19" d="M400.1,150.5c-10.6,0-19.2,8.6-19.2,19.2h3.7c0-8.5,6.9-15.5,15.5-15.5c8.5,0,15.5,6.9,15.5,15.5
	c0,1.7-0.3,3.4-0.8,4.9c-1.5,4.6-5.1,8.2-9.6,9.7c-1.3,0.5-2.7,0.7-4.2,0.8v3.7c1.7-0.1,3.3-0.4,4.9-0.9c6.2-2,11.1-7,12.8-13.4
	c0.4-1.6,0.6-3.2,0.6-4.9C419.3,159.1,410.7,150.5,400.1,150.5z"/>
<path class="st20" d="M406,186.9c0,0.4-0.1,0.8-0.2,1.1c-0.5,1.8-2.1,3-4,3c-2.3,0-4.1-1.9-4.1-4.1c0-2.3,1.9-4.1,4.1-4.1
	c1.3,0,2.5,0.6,3.3,1.6C405.7,185,406,185.9,406,186.9z"/>
<path class="st19" d="M468.8,150.5c-10.6,0-19.2,8.6-19.2,19.2h3.7c0-8.5,6.9-15.5,15.5-15.5c8.5,0,15.5,6.9,15.5,15.5
	c0,1.7-0.3,3.4-0.8,4.9c-1.5,4.5-5.1,8.2-9.6,9.7c-1.3,0.5-2.7,0.7-4.2,0.8v3.7c1.7-0.1,3.3-0.4,4.9-0.9c6.2-2,11.1-7,12.8-13.4
	c0.4-1.6,0.6-3.2,0.6-4.9C488,159.1,479.4,150.5,468.8,150.5z"/>
<path class="st21" d="M474.7,186.8c0,0.4-0.1,0.8-0.2,1.1c-0.5,1.8-2.1,3-4,3c-2.3,0-4.1-1.9-4.1-4.1c0-2.3,1.9-4.1,4.1-4.1
	c1.3,0,2.5,0.6,3.3,1.6C474.4,185,474.7,185.9,474.7,186.8z"/>
<path class="st19" d="M537.5,150.5c-10.6,0-19.2,8.6-19.2,19.2h3.7c0-8.5,6.9-15.5,15.5-15.5c8.5,0,15.5,6.9,15.5,15.5
	c0,1.7-0.3,3.4-0.8,4.9c-1.5,4.6-5.1,8.2-9.6,9.7c-1.3,0.5-2.7,0.7-4.2,0.8v3.7c1.7-0.1,3.3-0.4,4.9-0.9c6.2-2,11.1-7,12.7-13.4
	c0.4-1.6,0.6-3.2,0.6-4.9C556.7,159.1,548.1,150.5,537.5,150.5z"/>
<path class="st21" d="M543.4,186.8c0,0.4-0.1,0.8-0.1,1.1c-0.5,1.8-2.1,3-4,3c-2.3,0-4.2-1.9-4.2-4.1c0-2.3,1.9-4.2,4.2-4.2
	c1.3,0,2.5,0.6,3.3,1.6C543.1,185,543.4,185.9,543.4,186.8z"/>
<path class="st19" d="M606.2,150.5c-10.6,0-19.2,8.6-19.2,19.2h3.7c0-8.5,7-15.5,15.5-15.5c8.5,0,15.5,6.9,15.5,15.5
	c0,1.7-0.3,3.4-0.8,4.9c-1.5,4.5-5.1,8.2-9.6,9.7c-1.3,0.5-2.7,0.7-4.2,0.8v3.7c1.7-0.1,3.3-0.4,4.9-0.9c6.2-2,11.1-7,12.8-13.4
	c0.4-1.6,0.6-3.2,0.6-4.9C625.4,159.1,616.8,150.5,606.2,150.5z"/>
<path class="st21" d="M612.1,186.9c0,0.4-0.1,0.8-0.2,1.1c-0.5,1.8-2.1,3-4,3c-2.3,0-4.2-1.9-4.2-4.1c0-2.3,1.9-4.1,4.2-4.1
	c1.3,0,2.5,0.6,3.3,1.6C611.8,185,612.1,185.9,612.1,186.9z"/>
<path class="st19" d="M674.9,150.5c-10.6,0-19.2,8.6-19.2,19.2h3.7c0-8.5,6.9-15.5,15.5-15.5c8.5,0,15.5,6.9,15.5,15.5
	c0,1.7-0.3,3.4-0.8,4.9c-1.5,4.6-5.1,8.2-9.6,9.7c-1.3,0.5-2.7,0.7-4.2,0.8v3.7c1.7-0.1,3.3-0.4,4.9-0.9c6.2-2,11.1-7,12.7-13.4
	c0.4-1.6,0.6-3.2,0.6-4.9C694,159.1,685.5,150.5,674.9,150.5z"/>
<path class="st21" d="M680.8,186.8c0,0.4,0,0.8-0.1,1.1c-0.5,1.8-2.1,3-4,3c-2.3,0-4.1-1.9-4.1-4.1c0-2.3,1.9-4.1,4.1-4.1
	c1.3,0,2.5,0.6,3.3,1.6C680.5,185,680.8,185.9,680.8,186.8z"/>
<path class="st19" d="M743.6,150.5c-10.6,0-19.2,8.6-19.2,19.2h3.7c0-8.5,6.9-15.5,15.5-15.5c8.5,0,15.5,6.9,15.5,15.5
	c0,1.7-0.3,3.4-0.8,4.9c-1.5,4.6-5.1,8.2-9.6,9.7c-1.3,0.5-2.7,0.7-4.2,0.8v3.7c1.7-0.1,3.3-0.4,4.9-0.9c6.2-2,11.1-7,12.8-13.4
	c0.4-1.6,0.6-3.2,0.6-4.9C762.7,159.1,754.2,150.5,743.6,150.5z"/>
<path class="st21" d="M749.5,186.9c0,0.4-0.1,0.8-0.1,1.1c-0.5,1.8-2.1,3-4,3c-2.3,0-4.1-1.9-4.1-4.1c0-2.3,1.9-4.1,4.1-4.1
	c1.3,0,2.5,0.6,3.3,1.6C749.2,185,749.5,185.9,749.5,186.9z"/>
<path class="st22" d="M576.7,359.6h-22.3c-2.6,0-5.1-2.1-5.6-4.7l-4.3-22.3c-0.5-2.6,1.2-4.7,3.8-4.7h22.3c2.6,0,5.1,2.1,5.6,4.7
	l4.3,22.3C580.9,357.5,579.2,359.6,576.7,359.6z"/>
<path class="st23" d="M633,359.6h-22.3c-2.6,0-5.1-2.1-5.6-4.7l-4.3-22.3c-0.5-2.6,1.2-4.7,3.8-4.7h22.3c2.6,0,5.1,2.1,5.6,4.7
	l4.3,22.3C637.3,357.5,635.6,359.6,633,359.6z"/>
<path class="st24" d="M689.4,359.6h-22.3c-2.6,0-5.1-2.1-5.6-4.7l-4.3-22.3c-0.5-2.6,1.2-4.7,3.8-4.7h22.3c2.6,0,5.1,2.1,5.6,4.7
	l4.3,22.3C693.7,357.5,692,359.6,689.4,359.6z"/>
<path class="st23" d="M407.5,359.6h-22.3c-2.6,0-5.1-2.1-5.6-4.7l-4.3-22.3c-0.5-2.6,1.2-4.7,3.8-4.7h22.3c2.6,0,5.1,2.1,5.6,4.7
	l4.3,22.3C411.8,357.5,410.1,359.6,407.5,359.6z"/>
<path class="st25" d="M383,292.5h-9.6c-1.1,0-2.2-0.9-2.4-2l-1.9-9.6c-0.2-1.1,0.5-2,1.6-2h9.6c1.1,0,2.2,0.9,2.4,2l1.9,9.6
	C384.9,291.6,384.2,292.5,383,292.5z"/>
<path class="st23" d="M463.9,359.6h-22.3c-2.6,0-5.1-2.1-5.6-4.7l-4.3-22.3c-0.5-2.6,1.2-4.7,3.8-4.7h22.3c2.6,0,5.1,2.1,5.6,4.7
	l4.3,22.3C468.2,357.5,466.5,359.6,463.9,359.6z"/>
<path class="st23" d="M520.3,359.6h-22.3c-2.6,0-5.1-2.1-5.6-4.7l-4.3-22.3c-0.5-2.6,1.2-4.7,3.8-4.7h22.3c2.6,0,5.1,2.1,5.6,4.7
	l4.3,22.3C524.6,357.5,522.9,359.6,520.3,359.6z"/>
<path class="st24" d="M745.8,359.6h-22.3c-2.6,0-5.1-2.1-5.6-4.7l-4.3-22.3c-0.5-2.6,1.2-4.7,3.8-4.7h22.3c2.6,0,5.1,2.1,5.6,4.7
	l4.3,22.3C750.1,357.5,748.4,359.6,745.8,359.6z"/>
<path class="st23" d="M567.3,311.1H545c-2.6,0-5.1-2.1-5.6-4.7L535,284c-0.5-2.6,1.2-4.7,3.8-4.7h22.3c2.6,0,5.1,2.1,5.6,4.7
	l4.3,22.3C571.6,309,569.9,311.1,567.3,311.1z"/>
<path class="st23" d="M623.7,311.1h-22.3c-2.6,0-5.1-2.1-5.6-4.7l-4.3-22.3c-0.5-2.6,1.2-4.7,3.8-4.7h22.3c2.6,0,5.1,2.1,5.6,4.7
	l4.3,22.3C628,309,626.3,311.1,623.7,311.1z"/>
<path class="st24" d="M680,311.1h-22.3c-2.6,0-5.1-2.1-5.6-4.7l-4.3-22.3c-0.5-2.6,1.2-4.7,3.8-4.7h22.3c2.6,0,5.1,2.1,5.6,4.7
	l4.3,22.3C684.3,309,682.6,311.1,680,311.1z"/>
<path class="st24" d="M736.4,311.1h-22.3c-2.6,0-5.1-2.1-5.6-4.7l-4.3-22.3c-0.5-2.6,1.2-4.7,3.8-4.7h22.3c2.6,0,5.1,2.1,5.6,4.7
	l4.3,22.3C740.7,309,739,311.1,736.4,311.1z"/>
<path class="st23" d="M586.6,411h-22.3c-2.6,0-5.1-2.1-5.6-4.7l-4.3-22.3c-0.5-2.6,1.2-4.7,3.8-4.7h22.3c2.6,0,5.1,2.1,5.6,4.7
	l4.3,22.3C590.9,408.9,589.2,411,586.6,411z"/>
<path class="st23" d="M643,411h-22.3c-2.6,0-5.1-2.1-5.6-4.7l-4.3-22.3c-0.5-2.6,1.2-4.7,3.8-4.7h22.3c2.6,0,5.1,2.1,5.6,4.7
	l4.3,22.3C647.2,408.9,645.5,411,643,411z"/>
<path class="st24" d="M699.3,411H677c-2.6,0-5.1-2.1-5.6-4.7l-4.3-22.3c-0.5-2.6,1.2-4.7,3.8-4.7h22.3c2.6,0,5.1,2.1,5.6,4.7
	l4.3,22.3C703.6,408.9,701.9,411,699.3,411z"/>
<path class="st23" d="M417.5,411h-22.3c-2.6,0-5.1-2.1-5.6-4.7l-4.3-22.3c-0.5-2.6,1.2-4.7,3.8-4.7h22.3c2.6,0,5.1,2.1,5.6,4.7
	l4.3,22.3C421.7,408.9,420,411,417.5,411z"/>
<path class="st23" d="M473.8,411h-22.3c-2.6,0-5.1-2.1-5.6-4.7l-4.3-22.3c-0.5-2.6,1.2-4.7,3.8-4.7h22.3c2.6,0,5.1,2.1,5.6,4.7
	l4.3,22.3C478.1,408.9,476.4,411,473.8,411z"/>
<path class="st23" d="M530.2,411h-22.3c-2.6,0-5.1-2.1-5.6-4.7L498,384c-0.5-2.6,1.2-4.7,3.8-4.7h22.3c2.6,0,5.1,2.1,5.6,4.7
	l4.3,22.3C534.5,408.9,532.8,411,530.2,411z"/>
<path class="st24" d="M755.7,411h-22.3c-2.6,0-5.1-2.1-5.6-4.7l-4.3-22.3c-0.5-2.6,1.2-4.7,3.8-4.7h22.3c2.6,0,5.1,2.1,5.6,4.7
	l4.3,22.3C760,408.9,758.3,411,755.7,411z"/>
<path class="st23" d="M596.5,462.4h-22.3c-2.6,0-5.1-2.1-5.6-4.7l-4.3-22.3c-0.5-2.6,1.2-4.7,3.8-4.7h22.3c2.6,0,5.1,2.1,5.6,4.7
	l4.3,22.3C600.8,460.3,599.1,462.4,596.5,462.4z"/>
<path class="st23" d="M652.9,462.4h-22.3c-2.6,0-5.1-2.1-5.6-4.7l-4.3-22.3c-0.5-2.6,1.2-4.7,3.8-4.7h22.3c2.6,0,5.1,2.1,5.6,4.7
	l4.3,22.3C657.2,460.3,655.5,462.4,652.9,462.4z"/>
<path class="st24" d="M709.2,462.4h-22.3c-2.6,0-5.1-2.1-5.6-4.7l-4.3-22.3c-0.5-2.6,1.2-4.7,3.8-4.7h22.3c2.6,0,5.1,2.1,5.6,4.7
	l4.3,22.3C713.5,460.3,711.8,462.4,709.2,462.4z"/>
<path class="st23" d="M427.4,462.4H405c-2.6,0-5.1-2.1-5.6-4.7l-4.3-22.3c-0.5-2.6,1.2-4.7,3.8-4.7h22.3c2.6,0,5.1,2.1,5.6,4.7
	l4.3,22.3C431.7,460.3,430,462.4,427.4,462.4z"/>
<path class="st22" d="M483.7,462.4h-22.3c-2.6,0-5.1-2.1-5.6-4.7l-4.3-22.3c-0.5-2.6,1.2-4.7,3.8-4.7h22.3c2.6,0,5.1,2.1,5.6,4.7
	l4.3,22.3C488,460.3,486.3,462.4,483.7,462.4z"/>
<path class="st23" d="M540.1,462.4h-22.3c-2.6,0-5.1-2.1-5.6-4.7l-4.3-22.3c-0.5-2.6,1.2-4.7,3.8-4.7H534c2.6,0,5.1,2.1,5.6,4.7
	l4.3,22.3C544.4,460.3,542.7,462.4,540.1,462.4z"/>
<path class="st24" d="M765.6,462.4h-22.3c-2.6,0-5.1-2.1-5.6-4.7l-4.3-22.3c-0.5-2.6,1.2-4.7,3.8-4.7h22.3c2.6,0,5.1,2.1,5.6,4.7
	l4.3,22.3C769.9,460.3,768.2,462.4,765.6,462.4z"/>
<path class="st23" d="M605.9,511h-22.3c-2.6,0-5.1-2.1-5.6-4.7l-4.3-22.3c-0.5-2.6,1.2-4.7,3.8-4.7h22.3c2.6,0,5.1,2.1,5.6,4.7
	l4.3,22.3C610.1,508.9,608.4,511,605.9,511z"/>
<path class="st23" d="M662.2,511h-22.3c-2.6,0-5.1-2.1-5.6-4.7l-4.3-22.3c-0.5-2.6,1.2-4.7,3.8-4.7h22.3c2.6,0,5.1,2.1,5.6,4.7
	l4.3,22.3C666.5,508.9,664.8,511,662.2,511z"/>
<path class="st24" d="M718.6,511h-22.3c-2.6,0-5.1-2.1-5.6-4.7l-4.3-22.3c-0.5-2.6,1.2-4.7,3.8-4.7h22.3c2.6,0,5.1,2.1,5.6,4.7
	l4.3,22.3C722.9,508.9,721.2,511,718.6,511z"/>
<path class="st23" d="M436.7,511h-22.3c-2.6,0-5.1-2.1-5.6-4.7l-4.3-22.3c-0.5-2.6,1.2-4.7,3.8-4.7h22.3c2.6,0,5.1,2.1,5.6,4.7
	l4.3,22.3C441,508.9,439.3,511,436.7,511z"/>
<path class="st23" d="M493.1,511h-22.3c-2.6,0-5.1-2.1-5.6-4.7l-4.3-22.3c-0.5-2.6,1.2-4.7,3.8-4.7H487c2.6,0,5.1,2.1,5.6,4.7
	l4.3,22.3C497.4,508.9,495.7,511,493.1,511z"/>
<path class="st23" d="M549.5,511h-22.3c-2.6,0-5.1-2.1-5.6-4.7l-4.3-22.3c-0.5-2.6,1.2-4.7,3.8-4.7h22.3c2.6,0,5.1,2.1,5.6,4.7
	l4.3,22.3C553.8,508.9,552.1,511,549.5,511z"/>
<path class="st22" d="M450.8,283.7h-59.2c-0.9,0-1.6-0.7-1.6-1.6c0-0.9,0.7-1.6,1.6-1.6h59.2c0.9,0,1.6,0.7,1.6,1.6
	C452.3,283,451.6,283.7,450.8,283.7z"/>
<path class="st22" d="M452.6,290.9h-59.2c-0.9,0-1.6-0.7-1.6-1.6s0.7-1.6,1.6-1.6h59.2c0.9,0,1.6,0.7,1.6,1.6
	S453.4,290.9,452.6,290.9z"/>
<path class="st14" d="M387.3,230.3H367c-1.7,0-3-1.4-3-3c0-1.7,1.4-3,3-3h20.3c1.7,0,3,1.4,3,3C390.3,229,388.9,230.3,387.3,230.3z"
	/>
<path class="st14" d="M443,230.3h-20.3c-1.7,0-3-1.4-3-3c0-1.7,1.4-3,3-3H443c1.7,0,3,1.4,3,3C446,229,444.7,230.3,443,230.3z"/>
<path class="st14" d="M498.7,230.3h-20.3c-1.7,0-3-1.4-3-3c0-1.7,1.4-3,3-3h20.3c1.7,0,3,1.4,3,3C501.8,229,500.4,230.3,498.7,230.3
	z"/>
<path class="st14" d="M554.5,230.3h-20.3c-1.7,0-3-1.4-3-3c0-1.7,1.4-3,3-3h20.3c1.7,0,3,1.4,3,3C557.5,229,556.1,230.3,554.5,230.3
	z"/>
<path class="st14" d="M610.2,230.3h-20.3c-1.7,0-3-1.4-3-3c0-1.7,1.4-3,3-3h20.3c1.7,0,3,1.4,3,3C613.2,229,611.9,230.3,610.2,230.3
	z"/>
<path class="st14" d="M665.9,230.3h-20.3c-1.7,0-3-1.4-3-3c0-1.7,1.4-3,3-3h20.3c1.7,0,3,1.4,3,3C669,229,667.6,230.3,665.9,230.3z"
	/>
<path class="st14" d="M721.7,230.3h-20.3c-1.7,0-3-1.4-3-3c0-1.7,1.4-3,3-3h20.3c1.7,0,3,1.4,3,3C724.7,229,723.3,230.3,721.7,230.3
	z"/>
<path class="st26" d="M593.2,311.5c-4.5,0-7.8-1.4-9.5-4.2c-3.4-5.3-0.8-12.7,7.8-22.1c6.3-6.8,13.6-12.2,13.7-12.3
	c0.3-0.2,0.7-0.1,0.9,0.1c0.2,0.3,0.1,0.7-0.1,0.9c-0.3,0.2-28.6,21.2-21.2,32.6c2.3,3.6,7.3,3.9,11.1,3.4c7-0.8,16.2-4.6,24.5-10.1
	c8.6-5.7,14.6-12.1,16.6-17.6c1.3-3.6,0.9-6.2-1.2-7.6c-2.7-1.9-8.3-1.9-15,0c-6.4,1.8-12.9,5-16.8,8.3c-0.3,0.2-0.7,0.2-0.9-0.1
	c-0.2-0.3-0.2-0.7,0.1-0.9c4.1-3.5,10.7-6.8,17.3-8.6c7.2-2,13-1.9,16,0.2c1.8,1.2,3.5,3.8,1.7,9.1c-2.1,5.8-8.3,12.4-17.1,18.3
	c-8.5,5.6-17.8,9.5-25,10.3C595.1,311.4,594.1,311.5,593.2,311.5z"/>
<path class="st27" d="M710.5,274.7l-2.3-4.3c0,0,1.1-7.8-8.6-12.7c0,0-3.6-1.4-5.6,1.5c-1.8,2.7,3.5,2.2,3.2,6.7
	c-0.3,4.6,1.9,7.2,4.9,8.7l2.5,2.9L710.5,274.7z"/>
<path class="st28" d="M802.3,264.3c0,0-8.3,40.9-54.2,54.3c-14.3,4.2-46.9-43-46.9-43s1.2-4.4,8.3-3.4c0,0,31.7,21,35.7,23.3
	c3.5,2,26.8-26,37.4-30.5C793.2,260.5,802.3,264.3,802.3,264.3z"/>
<path class="st26" d="M718,254.3l1.8,9.9l-50,9.3l-1.8-9.9L718,254.3z"/>
<path class="st27" d="M657.4,270.7l12.5,2.8l-1.8-9.9L657.4,270.7z"/>
<path class="st27" d="M724.4,256.5l0.6,3.1c0.4,1.9-0.9,3.8-2.8,4.1l-2.3,0.4l-1.8-9.9l2.5-0.5C722.4,253.5,724.1,254.7,724.4,256.5
	z"/>
<path class="st29" d="M857.1,521.6c0,0,5.7,5.2,4.6,8.9c-1.1,3.7-6.3,6.2-7,10.7c-0.7,4.5-3.5,7-6,7s-11.9,0-11.9,0
	s-1.8-3.2,2.6-4.1c4.4-1,6.1-6.3,5.8-11.2c-0.3-4.9,0.4-11.5,0.4-11.5l9.4-2.2L857.1,521.6z"/>
<path class="st29" d="M787.2,535.1c0,0,1,11.8-1.5,13.1l-32-0.1c0,0,0-3.7,5.1-4.5c5.1-0.8,14.2-3.8,15.7-10.5
	C776.1,526.3,787.2,535.1,787.2,535.1z"/>
<path class="st30" d="M760.2,368c0,0,1.7,20.7,3.7,45.7c2.7,33.8,5.9,75.4,6.3,83.3c0.5,13.7,2.8,35.6,2.8,35.6s5.3,5.2,15.8,3
	c0,0,9.4-31.2,12.1-64.3c0-0.5,0.1-1.1,0.1-1.6c2.5-33.6,6.4-104.5,6.4-104.5L760.2,368z"/>
<path class="st31" d="M760.2,368c0,0,1.7,20.7,3.7,45.7l37,57.6c0-0.5,0.1-1.1,0.1-1.6c2.5-33.6,6.4-104.5,6.4-104.5L760.2,368z"/>
<path class="st30" d="M767.9,370.5c0,0,30.4,75.1,50.4,110.4c20,35.3,26.3,45.1,26.3,45.1s11.5-4.5,12.5-7.6c0,0-7.6-68.1-21-84.7
	c-7.6-9.4-16.5-37.5-16.9-47.4c-0.4-9.8-2.7-29.3-2.7-29.3L767.9,370.5z"/>
<path class="st27" d="M807.9,254.8c0,0-20.6,9.9-32.4,6.2c0,0,2.9-3.7,8-6.4c-0.4-2.4-0.7-4.4-0.9-6.2c-0.5-4-0.5-6.3-0.5-6.3
	l7.9-6.2l7.5-6C797,246.6,807.9,254.8,807.9,254.8z"/>
<path class="st32" d="M758.9,369.7c0.4,0.3,0.8,0.5,1.2,0.5c4.5-0.1,17.5,2.4,28.5,1.3c9.3-0.9,17.5-3.6,26.3-7.5
	c1.2-0.5,3.9-2,3.8-3.2c0-1.4-0.2-3.5-0.4-6.1c-0.4-5.1-0.9-12.4-1-21.1c-0.1-6.4-0.1-13.6,0.4-21.1c0-0.5,0.1-1,0.1-1.5
	c0.1-2.8,0.2-5.6,0.2-8.3c0-8.8-0.6-17.2-1.9-24.7c-2.2-13-6.4-23.2-12.6-27.8c-0.8-0.6-5.9,1.8-10.7,4.1c-4.3,2.1-8.7,2.3-12.8,1.5
	l-4.1,3.6c-5,4.5-10.5,10.8-12.9,20.2c-2,8-3.2,22.5-3.8,37.5c-0.3,6.8-0.5,13.7-0.6,20.2v0.2c0,0.7,0,1.4,0,2
	C758.4,356.2,758.6,369.5,758.9,369.7z"/>
<path class="st33" d="M797.7,236.3c0,0-5.2,9.5-15.1,12.1c-0.5-4-0.5-6.3-0.5-6.3l7.9-6.2L797.7,236.3z"/>
<path class="st27" d="M778.5,241.8c0,0,19.6,3.2,21.5-8.9c1.8-12.1,5.6-19.8-6.8-22.3c-12.5-2.6-15.6,1.7-17.2,5.6
	C774.3,220,773.4,240.6,778.5,241.8z"/>
<path class="st34" d="M807.1,209.1c0.2-0.2,0.6-0.4,1.5-0.4c0,0-0.7-0.5-1.7-0.5c-0.2-1.3-0.9-3.5-3.1-4.1c0,0,1.2,0.6,1.3,2
	c-2.5-2.6-8-4.5-23-3.3c-19.8,1.6-13.3,14.3-10.7,15.8c2.6,1.5,9-2.6,13.8-2.3c4.8,0.4,5.7,7.3,7.3,8.2c1.6,1,1-0.7,3.2-1.7
	c2.2-1,2.4,2.6,1.8,5c-0.6,2.4,2.4,5.5,2.4,5.5s0,0,3-3.3s5.9-17.2,4.5-20.2C807.3,209.7,807.2,209.4,807.1,209.1z"/>
<path class="st27" d="M708.1,270.1c0,0,0.7-2.7-1.2-3.9c-1.9-1.2-3.6-4.5-4.3-4c-1.6,0.9,0.9,3.8,0.4,7.3
	C702.9,270.8,705.8,274,708.1,270.1z"/>
<path class="st35" d="M817.4,333.6c-0.1-6.4-0.1-13.6,0.4-21.1c0-0.5,0-1,0.1-1.5c-1.9-9.2-4.7-17.4-8.8-17.7
	C809,293.3,796.6,312.7,817.4,333.6z"/>
<path class="st27" d="M833.7,367.2c0,0-1,10-2.2,11.9c-1.1,1.9-6,8-8,9.1c-2.1,1.2,1.3-8,0.8-9.8c-0.4-1.8-1.7,3.3-2.6,3.4
	c-0.9,0.1-0.7-4.4-0.7-6.1c0-1.7,4.4-5.7,6-9.3C828.6,363,833.7,367.2,833.7,367.2z"/>
<path class="st32" d="M803.5,250.1c0,0,12.4,5.9,18.4,14.9c9.2,14,20,65.1,20.1,69.9c0.2,4.7-7.8,38.2-7.8,38.2s-8.1-0.5-10.2-4.6
	c0,0,1.6-34.3,0.6-36.5c-1-2.2-33.9-46.1-30.2-55.4C798.1,267.1,803.5,250.1,803.5,250.1z"/>
<path class="st26" d="M663.8,266.4l0.7,5.9l-7.1-1.6L663.8,266.4z"/>
<path class="st36" d="M932.6,548h-35.8c-1.9-1.6,1.3-5.3,4.7-5.6c1.5-0.1,3.3,0.2,5.5,0.6c0.5-6.5,3.3-36,13.9-34.8
	c11.9,1.3,0,13-3.4,19.8c-2.5,5.1-5.1,12.4-6.3,15.9c1,0.2,2,0.4,3,0.6c1.6-4.9,7.5-21.2,14.9-20.2c8.8,1.1,5.3,7.7-1,11.5
	c-4.6,2.9-10.2,6.9-12.8,8.9c2.3,0.4,4.6,0.6,7,0.6C928.4,545.2,931.4,547,932.6,548z"/>
<path class="st36" d="M115.5,546.3c-1.9-3-7.6-10.7-15.2-9.7c-8.3,1.1,9.2,6.6,14.5,9.7c-1.2,0-2.2-0.1-3-0.3
	c-3.6-1.3-9.7,1.2-11.6,2h34c-0.2-0.8-0.8-2.1-2.4-3.1c-0.6-0.3-1.7-0.4-3.1-0.3c2-2.4,3.4-10-2.2-8c-4.1,1.4-4.1,6.1-3.7,8.8
	c-0.9,0.1-1.8,0.3-2.6,0.4c-1.7-8.6-7.7-33.9-19.8-34.6c-12.3-0.7,10.4,26.2,18,34.8C117.2,546.1,116.3,546.2,115.5,546.3z"/>
</svg>
